<svg width="118" height="27" viewBox="0 0 118 27" fill="none" xmlns="http://www.w3.org/2000/svg">
<g clip-path="url(#clip0_1149_354)">
<path d="M16.4759 9.98531C16.4759 8.45403 17.5091 6.96114 18.0746 7.24692C18.7166 7.5711 17.5941 9.01707 16.4759 9.98531ZM9.43097 10.5441C9.43097 9.31138 10.6469 6.96114 11.3867 7.2128C12.2626 7.50712 10.6597 9.87015 9.43097 10.5441ZM8.198 19.3735C8.07261 19.3861 7.94599 19.3706 7.82729 19.3282C7.7086 19.2857 7.60079 19.2173 7.51168 19.1279C7.42257 19.0385 7.35438 18.9303 7.31205 18.8113C7.26971 18.6922 7.25429 18.5651 7.26689 18.4393C7.26689 16.8313 9.4905 15.2957 11.1656 14.4725C10.868 16.7161 10.1155 19.2839 8.198 19.3735ZM18.4487 14.1356C18.165 14.1206 17.8811 14.1629 17.614 14.26C17.3468 14.357 17.1018 14.5067 16.8933 14.7004C16.6848 14.894 16.5171 15.1277 16.4002 15.3874C16.2832 15.6472 16.2193 15.9278 16.2123 16.2128C16.2123 17.1469 16.7736 17.8934 17.5176 17.8934C17.5845 17.8993 17.652 17.8912 17.7155 17.8694C17.7791 17.8476 17.8374 17.8126 17.8867 17.7668C17.936 17.721 17.9752 17.6653 18.0017 17.6033C18.0282 17.5414 18.0414 17.4745 18.0405 17.4071C18.0405 16.9209 17.3985 16.8014 17.4453 16.0763C17.4727 15.8509 17.5829 15.6439 17.7543 15.4956C17.9256 15.3474 18.1459 15.2685 18.3722 15.2744C19.2693 15.2744 19.6859 16.1275 19.6859 17.0403C19.6921 17.3422 19.639 17.6424 19.5295 17.9237C19.42 18.2051 19.2564 18.462 19.0479 18.6798C18.8395 18.8977 18.5903 19.0722 18.3145 19.1934C18.0388 19.3146 17.742 19.3802 17.4411 19.3863C15.8765 19.3863 14.8901 17.8891 14.8901 16.281C14.8901 13.8882 16.4547 12.954 17.2752 12.728C17.2752 12.728 19.4011 13.1119 19.35 12.1649C19.3203 11.7384 18.7081 11.5934 18.2574 11.572C17.9193 11.5686 17.583 11.622 17.2625 11.7299C16.9993 11.5782 16.8021 11.3332 16.7098 11.0431C18.2404 9.88295 19.3203 8.76114 19.3203 7.49005C19.3279 7.31743 19.299 7.14514 19.2357 6.98445C19.1724 6.82376 19.076 6.67828 18.9528 6.55752C18.8296 6.43675 18.6824 6.34342 18.5208 6.28361C18.3592 6.2238 18.1869 6.19887 18.015 6.21043C16.4887 6.21043 15.3322 8.15546 15.3322 9.9128C15.3195 10.1993 15.3453 10.4862 15.4088 10.7659C14.4497 11.461 13.4564 12.1073 12.4326 12.7024C12.4486 12.3207 12.497 11.9412 12.5772 11.5678C12.9938 11.0943 13.6061 10.3564 13.6061 9.8147C13.615 9.75205 13.61 9.68819 13.5913 9.62774C13.5726 9.5673 13.5407 9.51179 13.4979 9.46524C13.4552 9.41869 13.4027 9.38226 13.3442 9.3586C13.2857 9.33494 13.2226 9.32464 13.1597 9.32844C12.4156 9.32844 11.8544 10.4502 11.7056 11.2351C11.3697 11.6616 10.698 12.1692 10.141 12.1692C9.9873 12.1617 9.84075 12.1018 9.72556 11.9994C9.61038 11.8971 9.53345 11.7583 9.5075 11.6062C10.9233 11.1199 12.675 9.17489 12.675 7.41754C12.6858 7.25024 12.6596 7.0826 12.5981 6.9267C12.5367 6.77079 12.4415 6.63048 12.3195 6.51587C12.1976 6.40125 12.0518 6.31518 11.8927 6.26385C11.7336 6.21251 11.5652 6.19718 11.3995 6.21896C9.72859 6.20617 8.31705 8.71422 8.31705 10.6678C7.72182 10.6678 7.49648 10.0322 7.49648 9.54598C7.53023 9.1678 7.59276 8.79278 7.68355 8.42418C7.68832 8.38199 7.6842 8.33928 7.67145 8.2988C7.6587 8.25832 7.63761 8.22098 7.60954 8.1892C7.58148 8.15743 7.54707 8.13193 7.50855 8.11436C7.47003 8.09679 7.42825 8.08754 7.38594 8.08721C6.82897 8.08721 6.49309 8.83366 6.49309 9.69527C6.47803 10.2093 6.66473 10.7087 7.013 11.086C7.36128 11.4634 7.84329 11.6884 8.35531 11.7128C8.42629 12.0847 8.61855 12.4223 8.90181 12.6725C9.18507 12.9227 9.54324 13.0713 9.91991 13.0948C10.4638 13.1042 10.9932 12.9181 11.4122 12.5701C11.374 12.8303 11.3357 13.0564 11.3017 13.2825C9.66056 14.1356 8.47011 14.7412 7.38594 15.7138C6.60833 16.3784 6.12391 17.3243 6.03817 18.3455C6.02217 18.6343 6.06709 18.9232 6.16997 19.1933C6.27285 19.4635 6.43139 19.7088 6.63523 19.9133C6.83907 20.1178 7.08363 20.2769 7.35292 20.3801C7.62221 20.4833 7.91017 20.5284 8.198 20.5123C9.89866 20.5123 11.2167 19.1303 11.8502 17.2237C12.1462 16.1094 12.3117 14.9642 12.3433 13.8114C13.5186 13.1553 14.6543 12.4303 15.7447 11.6403C15.8388 11.8128 15.966 11.965 16.1188 12.0882C15.3128 12.4741 14.6347 13.0849 14.1657 13.8474C13.6967 14.6099 13.4566 15.4919 13.4743 16.3877C13.4743 18.3327 14.7795 20.4995 17.3518 20.4995C18.2775 20.5079 19.1698 20.1531 19.8386 19.5109C20.5073 18.8687 20.8995 17.9898 20.9317 17.0616C20.9487 15.5559 20.0898 14.1356 18.4487 14.1356ZM24.8559 17.3474C24.8559 17.3474 24.8262 17.3773 24.7879 17.3474L24.7496 17.3005C25.0345 16.367 25.1848 15.3975 25.1961 14.4213C25.1961 12.7749 24.5243 11.764 23.6697 11.764C23.5455 11.7563 23.421 11.776 23.3052 11.8218C23.1894 11.8676 23.085 11.9384 22.9995 12.0291C22.9139 12.1198 22.8492 12.2283 22.81 12.3469C22.7708 12.4654 22.7581 12.5911 22.7726 12.7152C22.7726 13.7261 24.0013 13.7986 24.0013 16.0081C23.982 16.9252 23.8184 17.8336 23.5167 18.6995C22.1391 23.3915 17.7387 25.5242 13.453 25.5242C12.1618 25.5582 10.8752 25.3559 9.65631 24.927V24.8502L9.71158 24.8119C10.6387 25.1034 11.6056 25.2474 12.5772 25.2384C14.2183 25.2384 15.1877 24.5645 15.1877 23.7412C15.1888 23.6183 15.1655 23.4963 15.1191 23.3824C15.0727 23.2686 15.0042 23.1651 14.9175 23.0782C14.8308 22.9912 14.7277 22.9224 14.6142 22.8759C14.5008 22.8294 14.3792 22.806 14.2566 22.8071C13.2489 22.8071 13.1767 24.0867 11.0126 24.0867C10.0859 24.0673 9.1679 23.9033 8.29154 23.6005C3.64024 22.2142 1.45065 17.8379 1.4549 13.5C1.45641 12.2068 1.65866 10.9217 2.05438 9.691H2.12241L2.16067 9.73792C1.87746 10.6697 1.73417 11.6386 1.73551 12.6128C1.73551 14.2592 2.40727 15.2318 3.26185 15.2318C3.37977 15.2335 3.49684 15.2115 3.60617 15.1671C3.71551 15.1228 3.81489 15.0569 3.89848 14.9735C3.98207 14.89 4.04817 14.7906 4.09291 14.6812C4.13764 14.5717 4.16009 14.4543 4.15894 14.336C4.15894 13.3251 2.93022 13.2142 2.93022 11.0431C2.94956 10.1135 3.11308 9.19247 3.41491 8.31328C4.8307 3.67678 9.19288 1.48863 13.4785 1.48863C14.7594 1.47432 16.0333 1.67915 17.2455 2.09432V2.16256L17.1945 2.20095C16.2823 1.8717 15.3195 1.70567 14.3501 1.71043C12.7473 1.71043 11.7439 2.38437 11.7439 3.24171C11.7438 3.36264 11.7681 3.48234 11.8153 3.5936C11.8625 3.70485 11.9318 3.80536 12.0188 3.88906C12.1058 3.97276 12.2088 4.03792 12.3215 4.0806C12.4343 4.12329 12.5545 4.14263 12.675 4.13745C13.6826 4.13745 13.7549 2.90474 15.919 2.90474C16.8456 2.93283 17.7622 3.10552 18.6358 3.41659C23.3126 4.83697 25.4384 9.25166 25.4384 13.5128C25.4592 14.8143 25.2637 16.1103 24.8602 17.3474H24.8559ZM13.4573 0.63555C10.921 0.634707 8.44135 1.38848 6.33207 2.80153C4.22279 4.21458 2.57858 6.22344 1.60739 8.57403C0.636202 10.9246 0.381658 13.5114 0.875954 16.0071C1.37025 18.5029 2.59118 20.7955 4.38433 22.595C6.17748 24.3946 8.46231 25.6202 10.9498 26.117C13.4374 26.6137 16.0158 26.3592 18.3592 25.3856C20.7025 24.4121 22.7054 22.7632 24.1146 20.6476C25.5238 18.5319 26.276 16.0445 26.276 13.5C26.276 10.0889 24.9256 6.8174 22.5217 4.40497C20.1179 1.99254 16.8574 0.636681 13.4573 0.63555ZM13.4573 27C10.7957 27.0009 8.19358 26.2098 5.98012 24.7269C3.76666 23.244 2.04126 21.1359 1.02212 18.6692C0.00298123 16.2025 -0.264108 13.4879 0.254632 10.8689C0.773371 8.24988 2.05464 5.84401 3.93638 3.95557C5.81813 2.06714 8.21583 0.780963 10.8262 0.259717C13.4367 -0.261529 16.1425 0.00556699 18.6016 1.02722C21.0607 2.04888 23.1625 3.77921 24.6413 5.99936C26.1201 8.21952 26.9095 10.8298 26.9095 13.5C26.91 15.2726 26.5625 17.028 25.8867 18.6659C25.2109 20.3038 24.2201 21.792 22.9709 23.0457C21.7217 24.2993 20.2386 25.2938 18.6062 25.9723C16.9738 26.6508 15.2242 27 13.4573 27Z" fill="#086DB6"/>
<path d="M38.465 17.4921C38.4872 17.6846 38.4556 17.8794 38.3738 18.0549C38.2919 18.2304 38.1631 18.3797 38.0016 18.4859C37.1328 18.9986 36.1395 19.2599 35.1317 19.2409C32.2321 19.2239 30.5952 17.0656 30.5952 14.0115C30.5952 10.2153 33.1164 8.67978 35.272 8.67978C36.2607 8.65846 37.2299 8.95763 38.0356 9.53286C38.1107 9.5753 38.1729 9.63739 38.2156 9.7125C38.2582 9.78762 38.2798 9.87295 38.2779 9.9594C38.2744 10.0849 38.2254 10.2048 38.1401 10.2967C38.0548 10.3885 37.939 10.446 37.8145 10.4584C37.6657 10.4584 37.5892 10.3817 37.3893 10.2622C36.7546 9.81833 35.999 9.58151 35.2253 9.58404C33.3333 9.58404 31.5306 11.013 31.5306 14.0286C31.5306 16.5878 32.8656 18.3537 35.1657 18.3537C35.8935 18.3578 36.6124 18.1929 37.266 17.8717C37.4446 17.7821 37.5084 17.6627 37.5084 17.3599V14.6428H35.2508C35.188 14.6488 35.1248 14.6408 35.0655 14.6193C35.0063 14.5978 34.9525 14.5634 34.9082 14.5184C34.8638 14.4735 34.83 14.4193 34.8091 14.3597C34.7882 14.3 34.7807 14.2365 34.7873 14.1736C34.7814 14.1111 34.7893 14.048 34.8105 13.9889C34.8317 13.9298 34.8657 13.8761 34.91 13.8317C34.9542 13.7873 35.0077 13.7532 35.0667 13.732C35.1256 13.7107 35.1884 13.7028 35.2508 13.7087H38.0143C38.0756 13.7047 38.1371 13.7141 38.1944 13.7363C38.2517 13.7584 38.3036 13.7928 38.3464 13.837C38.3893 13.8812 38.4221 13.9341 38.4425 13.9923C38.463 14.0504 38.4707 14.1122 38.465 14.1736V17.4921Z" fill="#231F20"/>
<path d="M45.7734 19.0736H41.6451C41.5097 19.0895 41.3724 19.0748 41.2434 19.0306C41.1144 18.9863 40.9968 18.9137 40.8994 18.818C40.802 18.7223 40.7271 18.606 40.6803 18.4775C40.6335 18.349 40.616 18.2117 40.6289 18.0755V9.97122C40.6083 9.81994 40.6221 9.66594 40.6693 9.52077C40.7164 9.3756 40.7958 9.24304 40.9013 9.13304C41.0069 9.02304 41.1359 8.93846 41.2787 8.88565C41.4215 8.83283 41.5744 8.81315 41.7259 8.82809H45.7649C45.8286 8.8194 45.8934 8.82529 45.9544 8.84532C46.0155 8.86535 46.0712 8.899 46.1175 8.94374C46.1637 8.98848 46.1992 9.04316 46.2214 9.10365C46.2435 9.16415 46.2517 9.22889 46.2454 9.29302C46.2454 9.60866 46.0966 9.75795 45.7649 9.75795H41.8322C41.7962 9.75837 41.7607 9.76628 41.728 9.78119C41.6952 9.79609 41.6659 9.81767 41.6419 9.84455C41.618 9.87142 41.5998 9.903 41.5886 9.9373C41.5775 9.97159 41.5735 10.0078 41.5771 10.0437V13.2684H45.3057C45.3697 13.262 45.4342 13.2702 45.4945 13.2924C45.5548 13.3147 45.6093 13.3503 45.6539 13.3967C45.6985 13.4431 45.732 13.499 45.752 13.5603C45.772 13.6215 45.7778 13.6865 45.7692 13.7504C45.7738 13.8122 45.7649 13.8743 45.7431 13.9324C45.7213 13.9904 45.6871 14.043 45.643 14.0865C45.5989 14.1299 45.5459 14.1632 45.4876 14.184C45.4294 14.2047 45.3673 14.2125 45.3057 14.2068H41.5983V17.9177C41.5983 18.0542 41.6578 18.1437 41.7939 18.1437H45.7862C46.1178 18.1437 46.2666 18.2802 46.2666 18.5959C46.2756 18.6622 46.2689 18.7298 46.247 18.793C46.2251 18.8563 46.1886 18.9135 46.1406 18.96C46.0926 19.0066 46.0343 19.0411 45.9705 19.0608C45.9067 19.0805 45.8392 19.0849 45.7734 19.0736Z" fill="#231F20"/>
<path d="M57.7423 19.1179C57.6783 19.1243 57.6138 19.1161 57.5535 19.0938C57.4932 19.0716 57.4387 19.036 57.3941 18.9896C57.3495 18.9432 57.316 18.8873 57.296 18.826C57.276 18.7648 57.2702 18.6998 57.2788 18.6359V14.298H51.977V18.6359C51.9863 18.7014 51.9802 18.7681 51.9593 18.8308C51.9384 18.8935 51.9033 18.9504 51.8567 18.9972C51.8101 19.0439 51.7533 19.0791 51.6908 19.1001C51.6283 19.1211 51.5619 19.1272 51.4966 19.1179C51.4327 19.1243 51.3682 19.1161 51.3079 19.0938C51.2476 19.0716 51.1931 19.036 51.1485 18.9896C51.1039 18.9432 51.0703 18.8873 51.0504 18.826C51.0304 18.7648 51.0245 18.6998 51.0332 18.6359V9.25203C51.0273 9.1895 51.0352 9.12643 51.0564 9.06733C51.0776 9.00822 51.1115 8.95454 51.1558 8.91013C51.2001 8.86571 51.2536 8.83165 51.3125 8.81039C51.3714 8.78912 51.4343 8.78117 51.4966 8.7871C51.5603 8.77841 51.6251 8.7843 51.6861 8.80433C51.7472 8.82435 51.8029 8.85801 51.8491 8.90275C51.8954 8.94749 51.9309 9.00217 51.9531 9.06266C51.9752 9.12316 51.9834 9.1879 51.977 9.25203V13.3639H57.2788V9.25203C57.2729 9.1895 57.2809 9.12643 57.3021 9.06733C57.3232 9.00822 57.3572 8.95454 57.4015 8.91013C57.4457 8.86571 57.4992 8.83165 57.5582 8.81039C57.6171 8.78912 57.6799 8.78117 57.7423 8.7871C57.8059 8.77841 57.8707 8.7843 57.9318 8.80433C57.9928 8.82435 58.0486 8.85801 58.0948 8.90275C58.141 8.94749 58.1766 9.00217 58.1987 9.06266C58.2209 9.12316 58.2291 9.1879 58.2227 9.25203V18.6359C58.2319 18.7014 58.2258 18.7681 58.205 18.8308C58.1841 18.8935 58.1489 18.9504 58.1024 18.9972C58.0558 19.0439 57.999 19.0791 57.9365 19.1001C57.874 19.1211 57.8075 19.1272 57.7423 19.1179Z" fill="#231F20"/>
<path d="M65.7905 15.5171H61.1136C61.1136 17.2233 62.1808 18.3323 63.6051 18.3323C64.2276 18.3205 64.835 18.1376 65.3611 17.8034C65.5269 17.6967 65.5864 17.6541 65.7054 17.6541C65.8238 17.6659 65.9334 17.7221 66.0122 17.8114C66.091 17.9008 66.1333 18.0167 66.1306 18.1361C66.1306 18.3024 66.0413 18.3792 65.9223 18.4816C65.2509 18.9879 64.4276 19.2497 63.5881 19.2237C61.3943 19.2237 60.1655 17.5986 60.1655 15.3081C60.1655 13.1541 61.2922 11.2432 63.5456 11.2432C65.4206 11.2432 66.5218 12.6294 66.5218 14.6555C66.4962 15.1247 66.3007 15.5171 65.7905 15.5171ZM63.5073 12.1261C62.0363 12.1261 61.2114 13.2863 61.1349 14.6427H65.5651C65.5821 13.3162 64.9189 12.1261 63.5073 12.1261Z" fill="#231F20"/>
<path d="M73.643 19.1168C73.5806 19.1228 73.5178 19.1148 73.4588 19.0935C73.3999 19.0723 73.3464 19.0382 73.3022 18.9938C73.2579 18.9494 73.2239 18.8957 73.2027 18.8366C73.1815 18.7775 73.1736 18.7144 73.1795 18.6519V17.9182C72.9471 18.323 72.6087 18.6562 72.201 18.8817C71.7933 19.1073 71.3318 19.2166 70.8666 19.1979C68.643 19.1979 67.7119 17.2998 67.7119 15.1926C67.7119 13.0855 68.6728 11.2173 70.9687 11.2173C71.4093 11.1975 71.847 11.2977 72.2355 11.5072C72.6239 11.7167 72.9487 12.0277 73.1753 12.4073V11.7974C73.1753 11.4945 73.3241 11.3453 73.6387 11.3453C73.6999 11.3396 73.7616 11.3473 73.8195 11.3678C73.8774 11.3883 73.9302 11.4212 73.9743 11.4642C74.0183 11.5072 74.0525 11.5592 74.0746 11.6167C74.0967 11.6742 74.1061 11.7359 74.1021 11.7974V18.6519C74.108 18.714 74.1001 18.7767 74.0792 18.8355C74.0582 18.8942 74.0246 18.9477 73.9809 18.992C73.9371 19.0364 73.8841 19.0705 73.8257 19.0921C73.7673 19.1136 73.7049 19.1221 73.643 19.1168ZM73.1795 14.5059C73.1795 13.1367 72.2952 12.1429 71.0027 12.1429C69.302 12.1429 68.6473 13.7552 68.6473 15.231C68.6473 16.7069 69.115 18.3448 70.9984 18.3448C72.2739 18.3448 73.1753 17.3637 73.1753 15.9945L73.1795 14.5059Z" fill="#231F20"/>
<path d="M77.2612 18.6648C77.2652 18.7263 77.2558 18.788 77.2337 18.8455C77.2116 18.903 77.1774 18.955 77.1334 18.998C77.0893 19.041 77.0365 19.0739 76.9786 19.0944C76.9207 19.1149 76.859 19.1226 76.7978 19.117C76.4832 19.117 76.3344 18.9677 76.3344 18.6648V8.22738C76.3304 8.16587 76.3398 8.10424 76.3619 8.04672C76.384 7.9892 76.4182 7.93716 76.4622 7.89419C76.5063 7.85122 76.5591 7.81833 76.617 7.7978C76.675 7.77727 76.7366 7.76957 76.7978 7.77525C77.1124 7.77525 77.2612 7.92454 77.2612 8.22738V18.6648Z" fill="#231F20"/>
<path d="M82.1122 12.2504H80.8367V17.0405C80.8367 17.6718 80.9727 18.3201 81.721 18.3201C81.913 18.3203 82.1028 18.2796 82.278 18.2007C82.3804 18.1411 82.4928 18.1007 82.6096 18.0812C82.7133 18.0938 82.8088 18.1442 82.8778 18.2229C82.9468 18.3016 82.9845 18.403 82.9837 18.5078C82.9781 18.5837 82.9547 18.6572 82.9156 18.7224C82.8765 18.7876 82.8226 18.8426 82.7584 18.8831C82.4449 19.0989 82.0713 19.2094 81.6912 19.1988C80.5943 19.1988 79.9056 18.6869 79.9056 17.0917V12.2504H79.0552C78.7406 12.2504 78.5918 12.131 78.5918 11.8239C78.5918 11.5168 78.7406 11.3974 79.0552 11.3974H79.9056V9.62722C79.9015 9.56531 79.911 9.50327 79.9333 9.44542C79.9556 9.38757 79.9903 9.3353 80.0348 9.29225C80.0793 9.2492 80.1327 9.21642 80.1911 9.19618C80.2496 9.17595 80.3117 9.16875 80.3732 9.17508C80.6879 9.17508 80.8367 9.32437 80.8367 9.62722V11.3888H82.1122C82.4268 11.3888 82.5756 11.5083 82.5756 11.8154C82.5756 12.1225 82.4268 12.2504 82.1122 12.2504Z" fill="#231F20"/>
<path d="M89.7695 19.1173C89.7058 19.126 89.641 19.1201 89.58 19.1001C89.5189 19.08 89.4632 19.0464 89.4169 19.0016C89.3707 18.9569 89.3352 18.9022 89.313 18.8417C89.2908 18.7812 89.2826 18.7165 89.289 18.6523V14.2206C89.289 13.3035 89.0042 12.1263 87.4736 12.1263C86.1981 12.1263 85.1777 13.0604 85.1777 14.8092V18.6481C85.1777 18.772 85.1286 18.8908 85.0413 18.9783C84.954 19.0659 84.8356 19.1151 84.7121 19.1151C84.5887 19.1151 84.4703 19.0659 84.3829 18.9783C84.2956 18.8908 84.2466 18.772 84.2466 18.6481V8.2405C84.2466 8.11663 84.2956 7.99783 84.3829 7.91024C84.4703 7.82265 84.5887 7.77344 84.7121 7.77344C84.8356 7.77344 84.954 7.82265 85.0413 7.91024C85.1286 7.99783 85.1777 8.11663 85.1777 8.2405V12.6083C85.4219 12.1837 85.7752 11.8327 86.2007 11.5919C86.6262 11.351 87.1084 11.2292 87.5969 11.2391C89.5356 11.2391 90.2244 12.5187 90.2244 13.9647V18.6566C90.2201 18.968 90.0841 19.1173 89.7695 19.1173Z" fill="#231F20"/>
<path d="M97.8476 12.459C97.8446 12.5791 97.7965 12.6937 97.713 12.7799C97.6294 12.8661 97.5166 12.9175 97.397 12.9239C97.2609 12.9239 97.1716 12.8471 96.9718 12.7149C96.4998 12.3331 95.9115 12.1253 95.3052 12.1263C93.8468 12.1263 92.7967 13.2694 92.7967 15.2315C92.7967 17.1936 93.8171 18.3367 95.2584 18.3367C95.888 18.3259 96.4957 18.1036 96.9846 17.7054C97.1017 17.5938 97.25 17.5209 97.4097 17.4964C97.5277 17.5091 97.6367 17.5656 97.7153 17.6548C97.794 17.7439 97.8366 17.8593 97.8349 17.9784C97.8325 18.0531 97.8123 18.1261 97.7761 18.1914C97.7398 18.2567 97.6886 18.3123 97.6265 18.3537C96.9547 18.9196 96.1015 19.2226 95.2244 19.2068C93.1836 19.2068 91.8613 17.6116 91.8613 15.2144C91.8613 12.7447 93.3622 11.222 95.3307 11.222C95.7536 11.2 96.1767 11.2642 96.5742 11.4109C96.9717 11.5575 97.3355 11.7834 97.6436 12.0751C97.7034 12.1203 97.7526 12.1781 97.7879 12.2444C97.8231 12.3107 97.8435 12.3839 97.8476 12.459Z" fill="#231F20"/>
<path d="M104.829 19.1168C104.767 19.1228 104.704 19.1148 104.645 19.0935C104.586 19.0723 104.532 19.0382 104.488 18.9938C104.444 18.9494 104.41 18.8957 104.389 18.8366C104.368 18.7775 104.36 18.7144 104.366 18.6519V17.9182C104.133 18.323 103.795 18.6562 103.387 18.8817C102.979 19.1073 102.518 19.2166 102.053 19.1979C99.8291 19.1979 98.8979 17.2998 98.8979 15.1926C98.8979 13.0855 99.8588 11.2173 102.155 11.2173C102.595 11.1975 103.033 11.2977 103.422 11.5072C103.81 11.7167 104.135 12.0277 104.361 12.4073V11.7974C104.361 11.4945 104.51 11.3453 104.825 11.3453C104.886 11.3396 104.948 11.3473 105.006 11.3678C105.063 11.3883 105.116 11.4212 105.16 11.4642C105.204 11.5072 105.239 11.5592 105.261 11.6167C105.283 11.6742 105.292 11.7359 105.288 11.7974V18.6519C105.294 18.714 105.286 18.7767 105.265 18.8355C105.244 18.8942 105.211 18.9477 105.167 18.992C105.123 19.0364 105.07 19.0705 105.012 19.0921C104.953 19.1136 104.891 19.1221 104.829 19.1168ZM104.349 14.5059C104.349 13.1367 103.464 12.1429 102.172 12.1429C100.471 12.1429 99.8163 13.7552 99.8163 15.231C99.8163 16.7069 100.297 18.3448 102.172 18.3448C103.447 18.3448 104.349 17.3637 104.349 15.9945V14.5059Z" fill="#231F20"/>
<path d="M111.032 12.2496C110.955 12.2443 110.879 12.2285 110.807 12.2027C110.631 12.1517 110.449 12.1259 110.267 12.1259C109.216 12.1259 108.434 12.9236 108.434 14.2586V18.652C108.44 18.7145 108.432 18.7776 108.411 18.8367C108.39 18.8958 108.356 18.9495 108.312 18.9939C108.267 19.0383 108.214 19.0724 108.155 19.0937C108.096 19.1149 108.033 19.1229 107.971 19.1169C107.908 19.1229 107.846 19.1149 107.787 19.0937C107.728 19.0724 107.674 19.0383 107.63 18.9939C107.586 18.9495 107.552 18.8958 107.53 18.8367C107.509 18.7776 107.501 18.7145 107.507 18.652V11.7975C107.503 11.736 107.513 11.6744 107.535 11.6168C107.557 11.5593 107.591 11.5073 107.635 11.4643C107.679 11.4213 107.732 11.3885 107.79 11.3679C107.848 11.3474 107.91 11.3397 107.971 11.3454C108.285 11.3454 108.434 11.4947 108.434 11.7975V12.3264C108.61 11.9907 108.876 11.7112 109.202 11.5196C109.528 11.3281 109.902 11.2323 110.279 11.243C111.002 11.243 111.359 11.4691 111.359 11.7719C111.359 12.0748 111.24 12.2496 111.032 12.2496Z" fill="#231F20"/>
<path d="M117.29 15.5165H112.613C112.613 17.2226 113.681 18.3316 115.105 18.3316C115.727 18.3199 116.335 18.137 116.861 17.8027C117.027 17.6961 117.086 17.6534 117.205 17.6534C117.324 17.6652 117.433 17.7214 117.512 17.8108C117.591 17.9002 117.633 18.0161 117.63 18.1354C117.63 18.3018 117.541 18.3786 117.422 18.4809C116.752 18.9839 115.933 19.2441 115.096 19.2188C112.903 19.2188 111.674 17.5937 111.674 15.3032C111.674 13.1492 112.801 11.2383 115.054 11.2383C116.929 11.2383 118.03 12.6245 118.03 14.6506C118.009 15.1241 117.8 15.5165 117.29 15.5165ZM115.007 12.1255C113.536 12.1255 112.711 13.2857 112.635 14.6421H117.065C117.082 13.3155 116.419 12.1255 115.007 12.1255Z" fill="#231F20"/>
</g>
<defs>
<clipPath id="clip0_1149_354">
<rect width="118" height="27" fill="white"/>
</clipPath>
</defs>
</svg>
