<svg width="89" height="21" viewBox="0 0 89 21" fill="none" xmlns="http://www.w3.org/2000/svg">
<g clip-path="url(#clip0_1149_220)">
<path d="M23.2258 4.43945H19.6641V15.898H23.2258V4.43945Z" fill="#C32127"/>
<path d="M69.1729 4.76389C68.5941 4.4542 67.8224 4.43945 67.8075 4.43945H61.5002L60.3871 6.56305H65.8782C66.4273 6.56305 66.6648 6.75476 66.7983 6.96122C66.9319 7.16768 66.9467 7.41839 66.9467 7.49212V13.7744H64.3645C63.6521 13.7597 63.3404 13.4647 63.1475 13.1108C62.9546 12.7569 62.9249 12.3292 62.9249 12.1522V12.049C62.9249 11.4444 63.1772 11.0609 63.4443 10.8102C63.5779 10.6775 63.6966 10.589 63.8005 10.53C63.845 10.5006 66.457 9.15855 66.457 9.15855V7.97878L61.886 8.62766C60.7136 8.76038 60.1052 9.63047 59.8232 10.4121C59.5264 11.2084 59.5264 11.9753 59.5264 12.049V12.0638C59.5264 13.8334 60.1348 14.8215 60.8324 15.3229C61.515 15.8243 62.2274 15.8538 62.4203 15.8538C62.45 15.8538 62.4648 15.8538 62.4648 15.8538H70.4492V6.799V6.78426C70.4492 5.81094 69.7517 5.07358 69.1729 4.76389Z" fill="#C32127"/>
<path d="M81.194 4.4082L78.1665 11.0297C78.122 11.1034 78.0478 11.1624 77.9439 11.1624C77.84 11.1624 77.7362 11.0739 77.7065 11.0002L75.3023 5.16031C75.3023 5.16031 75.0797 4.4082 74.1892 4.4082H71.1172L75.4507 14.3183C75.6139 14.7312 75.7623 15.5423 75.4952 16.206L73.1207 20.9988H76.7864L84.8152 4.4082H81.194Z" fill="#C32127"/>
<path d="M45.0272 0.870084V4.4389H41.3021H41.2873C39.6845 4.4389 38.9276 4.89607 38.3785 5.83989C38.0075 6.50351 37.8442 7.43258 37.8442 8.70084V11.6503C37.8442 12.9185 38.0075 13.8476 38.3785 14.5112C38.9128 15.4403 39.9219 15.9122 41.2725 15.9122H41.2873H48.5296V0C48.5296 0 46.9416 0 46.0215 0C45.0272 0 45.0272 0.870084 45.0272 0.870084ZM45.0272 13.7886H43.5728C42.5191 13.7886 41.9551 13.5232 41.7177 13.0513C41.6138 12.8596 41.4357 12.2107 41.4357 10.6032V8.43539C41.4357 7.28511 41.6138 7.0639 41.8216 6.8427C42.0293 6.60674 42.2668 6.57725 42.5339 6.57725H45.0272V13.7886Z" fill="#C32127"/>
<path d="M34.698 4.91136C34.0598 4.48369 33.3772 4.43945 33.0358 4.43945C32.9319 4.43945 25.1851 4.43945 25.1851 4.43945V15.9128H28.7914V6.5778H31.2252C31.7744 6.59254 32.0118 6.799 32.1751 7.0792C32.3235 7.3594 32.3531 7.69858 32.3531 7.8903V15.9275H35.9001V7.55111V7.53636C35.8852 6.13538 35.351 5.32428 34.698 4.91136Z" fill="#C32127"/>
<path d="M16.517 4.91136C15.8788 4.48369 15.1961 4.43945 14.8548 4.43945H-0.015625V15.898H3.51647V6.56305H5.95036C6.49947 6.56305 6.73692 6.799 6.90017 7.06445C7.04857 7.34465 7.07826 7.68383 7.07826 7.8608V7.87555C7.07826 7.94928 7.07826 15.898 7.07826 15.898H10.5955V6.56305H13.0294C13.5785 6.56305 13.816 6.799 13.9792 7.06445C14.1276 7.34465 14.1573 7.68383 14.1573 7.8608C14.1573 7.8608 14.1573 7.8608 14.1573 7.87555C14.1573 7.94928 14.1573 15.898 14.1573 15.898H17.7042V7.52162C17.7042 6.13538 17.1551 5.32428 16.517 4.91136Z" fill="#C32127"/>
<path d="M56.855 4.43945C56.8402 4.43945 56.8402 4.43945 56.8253 4.43945C53.1003 4.43945 52.0021 5.70771 51.4827 8.19999L49.8057 15.898H53.6494L55.2225 8.68664C55.4748 7.49212 55.7123 7.06445 55.8162 6.97597C56.0388 6.71052 56.4098 6.56305 57.2557 6.56305H58.6953L59.8232 4.4542H56.855V4.43945Z" fill="#C32127"/>
<path d="M86.1804 4.67365H85.6758V4.4082H86.9966V4.67365H86.492V6.14837H86.1804V4.67365Z" fill="#C32127"/>
<path d="M88.6736 5.44158C88.6588 5.22037 88.6439 4.95492 88.6588 4.70422H88.6439C88.5846 4.91068 88.5104 5.14664 88.4362 5.36785L88.1839 6.11995H87.9316L87.6941 5.38259C87.6199 5.16139 87.5606 4.92543 87.516 4.70422C87.5012 4.94018 87.5012 5.20563 87.4864 5.44158L87.4418 6.1347H87.145L87.2637 4.39453H87.6793L87.9019 5.08765C87.9613 5.29411 88.0206 5.50057 88.0651 5.69228C88.1097 5.50057 88.169 5.29411 88.2432 5.08765L88.4807 4.39453H88.8962L89.0001 6.1347H88.6884L88.6736 5.44158Z" fill="#C32127"/>
<path d="M19.6641 3.53933H23.2258V0H20.7771C19.946 0 19.6641 0.442416 19.6641 1.00281V3.53933Z" fill="#C32127"/>
</g>
<defs>
<clipPath id="clip0_1149_220">
<rect width="89" height="21" fill="white"/>
</clipPath>
</defs>
</svg>
