<svg width="70" height="58" viewBox="0 0 70 58" fill="none" xmlns="http://www.w3.org/2000/svg">
<path fill-rule="evenodd" clip-rule="evenodd" d="M26.25 40.686V49.5833H64.1522C67.3819 49.5833 70 46.9873 70 43.7497V5.83364C70 2.61181 67.3837 0 64.1522 0H5.84776C2.61813 0 0 2.596 0 5.83364V43.7497C0 46.9715 2.61633 49.5833 5.84776 49.5833H11.6667V40.686C9.86244 38.8448 8.75 36.3232 8.75 33.5417C8.75 27.9038 13.3204 23.3333 18.9583 23.3333C24.5962 23.3333 29.1667 27.9038 29.1667 33.5417C29.1667 36.3232 28.0542 38.8448 26.25 40.686ZM14.5833 42.7676V57.1666L18.9583 52.7917L23.3333 57.1666V42.7676C22.0073 43.3975 20.524 43.75 18.9583 43.75C17.3927 43.75 15.9093 43.3975 14.5833 42.7676ZM8.75 14.5833V17.5H61.25V14.5833H8.75ZM35 23.3333V26.25H61.25V23.3333H35ZM43.75 32.0833V35H61.25V32.0833H43.75ZM18.9583 40.8333C22.9854 40.8333 26.25 37.5687 26.25 33.5417C26.25 29.5146 22.9854 26.25 18.9583 26.25C14.9313 26.25 11.6667 29.5146 11.6667 33.5417C11.6667 37.5687 14.9313 40.8333 18.9583 40.8333Z" fill="#14C1DE"/>
</svg>
