<svg width="70" height="70" viewBox="0 0 70 70" fill="none" xmlns="http://www.w3.org/2000/svg">
<path d="M30.625 21.874V17.499H4.375C1.96437 17.499 0 19.4634 0 21.874V30.624H31.5481C30.94 27.9509 30.625 25.0722 30.625 21.874Z" fill="#14C1DE"/>
<path d="M69.8206 39.374C66.8369 43.9721 62.2869 47.8834 55.7681 51.6284C54.7663 52.2015 53.6375 52.499 52.5 52.499C51.3625 52.499 50.2337 52.2015 49.245 51.6371C42.7262 47.8834 38.1763 43.9678 35.1881 39.374H0V61.249C0 63.664 1.96438 65.624 4.375 65.624H65.625C68.04 65.624 70 63.664 70 61.249V39.374H69.8206ZM19.6875 52.499H10.9375C9.73 52.499 8.75 51.519 8.75 50.3115C8.75 49.104 9.73 48.124 10.9375 48.124H19.6875C20.895 48.124 21.875 49.104 21.875 50.3115C21.875 51.519 20.895 52.499 19.6875 52.499Z" fill="#14C1DE"/>
<path fill-rule="evenodd" clip-rule="evenodd" d="M53.3619 4.55316L68.6744 11.1157C69.4794 11.4569 70 12.2488 70 13.1238V21.8738C70 33.9269 65.5506 40.9619 53.5894 47.835C53.2525 48.0275 52.8763 48.1238 52.5 48.1238C52.1238 48.1238 51.7475 48.0275 51.4106 47.835C39.4494 40.9444 35 33.9094 35 21.8738V13.1238C35 12.2488 35.5206 11.4569 36.3213 11.1157L51.6337 4.55316C52.1894 4.31691 52.8062 4.31691 53.3619 4.55316ZM46.6667 23.1772V18.9461L50.8044 15.555H55.0356V37.0217H50.8044V19.6954L46.6667 23.1772Z" fill="#14C1DE"/>
</svg>
