<svg width="242" height="280" viewBox="0 0 242 280" fill="none" xmlns="http://www.w3.org/2000/svg">
<path fill-rule="evenodd" clip-rule="evenodd" d="M54.1911 0H188.086C222.683 0 227.277 0 231.284 1.56363C235.25 3.2372 238.406 6.39306 240.08 10.359C241.723 16.1017 242.286 22.0994 241.741 28.0476V64.7929H151.24L121.041 94.9904L90.841 64.7929H0.340091V28.0476C-0.224774 22.1377 0.305337 16.1744 1.90382 10.4568C3.59167 6.46639 6.7885 3.3049 10.7975 1.66136C14.8046 0 19.8867 0 54.1911 0ZM93.1856 172.701H148.796V107.81H191.505V172.799H241.545C242.981 192.225 240.317 211.736 233.726 230.066C225.071 248.964 209.404 263.754 190.039 271.307C169.808 279.125 145.473 279.223 120.942 279.125L120.039 279.122C95.812 279.026 71.7305 278.932 51.8445 271.209C32.505 263.652 16.87 248.86 8.25546 229.969C1.68386 211.666 -1.01193 192.198 0.339068 172.799H50.4762V107.81H93.1856V172.701Z" fill="#14C1DE"/>
</svg>
