<svg width="30" height="22" viewBox="0 0 30 22" fill="none" xmlns="http://www.w3.org/2000/svg">
<path fill-rule="evenodd" clip-rule="evenodd" d="M14.4392 2.44833C15.946 1.12978 18.1868 0.471847 20.1058 1.22272C20.6121 1.42095 21.0803 1.72793 21.4408 2.13711C21.545 2.25589 21.7071 2.30294 21.8572 2.26707L25.6862 1.29985L30 8.73221L24.9606 12.3589L17.6168 4.94738C17.5249 4.85405 17.3921 4.81124 17.2621 4.8286C15.8846 5.0114 14.5025 6.861 13.8367 7.97516C13.523 8.50197 13.1316 9.12866 12.4817 9.2567C12.1806 9.3157 11.9255 9.16067 11.8325 8.87567C11.4751 7.95704 12.0344 6.32649 12.3717 5.47072C12.8252 4.32069 13.5048 3.26592 14.4392 2.44833ZM11.636 14.5973C11.5388 12.8448 10.1088 11.9698 8.50212 12.6327C8.13007 10.841 6.1594 10.0612 4.86762 11.357L4.46932 11.7573L0 7.29217L4.59514 0.5L4.7391 0.617625C5.9066 1.57405 7.49904 2.28134 8.95832 1.51196C10.9174 0.478404 12.2455 0.202274 14.0745 1.65658C12.9166 2.64849 12.149 3.74761 11.5897 5.1672C11.169 6.23508 10.6067 8.04342 11.0521 9.18188C11.3188 9.86218 11.9193 10.2231 12.6445 10.0758C13.5623 9.89071 14.1366 9.11015 14.589 8.35465C15.2123 7.31338 16.0702 6.23161 17.191 5.70674C20.1312 8.67551 23.0652 11.6501 26.0197 14.6046C26.7345 15.3196 25.4307 17.261 24.2443 16.0786C22.7005 14.5398 21.1602 12.9979 19.6191 11.4565C19.2285 11.0658 18.6345 11.6597 19.0251 12.05C20.4392 13.4634 21.853 14.8761 23.274 16.2965C23.9197 17.0219 22.4566 18.8564 21.274 17.6748L17.6453 14.0485C17.2547 13.6574 16.66 14.2509 17.0513 14.6416L20.0343 17.6331C20.792 19.062 19.0818 20.0867 18.1332 19.1391L17.5612 18.5676C17.2374 18.2429 16.9456 18.5915 16.7306 18.8179C16.3983 17.5209 15.7017 16.8827 14.2953 16.9363C14.323 15.3192 13.2621 14.3265 11.636 14.5973ZM15.5311 21.1264L16.0984 20.5595C16.5986 20.0605 16.6731 19.5946 16.746 18.9409C17.0502 19.2444 17.2493 19.4446 17.489 19.8163C17.9641 20.5522 16.7337 21.7674 15.5311 21.1264ZM13.8163 18.025C15.1038 17.0628 16.6102 18.8618 15.5044 19.9664L14.6276 20.8422C13.5423 21.9266 11.775 20.4862 12.6677 19.1808L13.8163 18.025ZM13.1922 17.4488C12.6445 17.9644 12.1405 18.5201 11.6098 19.0508C10.5079 20.1519 8.75261 18.669 9.65766 17.3786C10.1957 16.8422 10.7202 16.2922 11.2578 15.755C12.3686 14.6455 14.1308 16.1565 13.1922 17.4488ZM10.5407 15.2857C10.0031 15.8229 9.47781 16.3724 8.94018 16.9096C7.73061 18.1175 6.0054 16.1939 6.97684 15.2722C7.52258 14.7276 8.04361 14.1588 8.58858 13.6134C9.68777 12.5151 11.4396 13.9891 10.5407 15.2857ZM6.28097 14.7681C5.02779 15.7735 3.42184 13.9941 4.55847 12.856C4.85913 12.5541 5.16056 12.2525 5.4616 11.9513C6.52412 10.8899 8.24431 12.2255 7.46005 13.5548L6.52065 14.4927C6.44462 14.5679 6.37437 14.6497 6.28097 14.7681Z" fill="#14C1DE"/>
</svg>
