<svg width="15" height="18" viewBox="0 0 15 18" fill="none" xmlns="http://www.w3.org/2000/svg">
<path d="M12.1957 2.29897C12.0822 2.29897 12.0254 2.29897 11.9119 2.2422C9.18717 0.709558 5.83806 0.709558 3.05659 2.2422C2.77277 2.35573 2.43218 2.18544 2.31865 1.90162C2.26189 1.67456 2.31865 1.4475 2.48894 1.2772C5.611 -0.425735 9.35747 -0.425735 12.4795 1.2772C12.7633 1.4475 12.8769 1.78809 12.7066 2.07191C12.6498 2.2422 12.4228 2.35573 12.1957 2.29897Z" fill="white"/>
<path d="M0.672627 6.72636C0.332039 6.72636 0.10498 6.44254 0.10498 6.15872C0.10498 6.04519 0.161745 5.93166 0.21851 5.81813C0.388804 5.64784 3.45409 1.95813 7.65468 1.90137H7.71144C10.2091 1.90137 12.5932 3.20695 14.7503 5.81813C14.9773 6.04519 14.9206 6.44254 14.6935 6.61283C14.4664 6.83989 14.0691 6.78313 13.8988 6.55607C11.9688 4.22872 9.92527 3.09343 7.76821 3.09343C4.07851 3.09343 1.24027 6.55607 1.18351 6.55607C1.01322 6.6696 0.842921 6.78313 0.672627 6.72636Z" fill="white"/>
<path d="M9.69802 17.0015C9.64125 17.0015 9.58449 17.0015 9.52772 17.0015C9.13037 16.888 8.78978 16.7177 8.4492 16.5474C7.3139 15.923 6.40567 15.0147 5.78126 13.8227C5.3839 13.0847 4.81626 11.7224 4.98655 10.7574C5.21361 9.73561 5.89479 8.82737 6.91655 8.43002C7.59773 8.20296 8.33567 8.31649 8.84655 8.77061C9.35743 9.16796 9.75478 9.67884 9.92508 10.3033C10.0386 10.7574 10.2089 11.1547 10.436 11.5521C10.8333 12.1765 11.5713 12.4603 12.3092 12.2333C12.7065 12.1197 12.9904 11.8927 13.1607 11.4953C13.558 10.5303 12.9336 8.82737 12.593 8.25973L12.4227 8.03267C11.7983 7.0109 10.663 5.76208 9.13037 5.30796C8.10861 5.02414 6.12184 4.74032 4.5892 5.81885C3.28361 6.78385 2.43214 8.25973 2.20508 9.84914C1.97802 11.1547 2.09155 12.4603 2.37538 13.7091C2.43214 13.993 2.26185 14.3335 1.92126 14.3903C1.63744 14.4471 1.35361 14.2768 1.29685 13.993C0.95626 12.5738 0.842731 11.098 1.06979 9.67884C1.35361 7.80561 2.37538 6.0459 3.90802 4.91061C5.83802 3.54826 8.16537 3.88885 9.41419 4.22944C11.2874 4.74032 12.593 6.27296 13.331 7.40826L13.558 7.74884C13.7283 8.03267 14.8636 10.3033 14.1257 11.9494C13.8418 12.6306 13.2742 13.1415 12.593 13.3118C11.401 13.7091 10.0954 13.255 9.47096 12.1765C9.13037 11.6656 8.90331 11.1547 8.78978 10.5871C8.67625 10.2465 8.39243 9.9059 8.10861 9.67884C7.88155 9.45179 7.59773 9.39502 7.3139 9.50855C6.74626 9.79237 6.29214 10.36 6.17861 10.9844C6.17861 11.8359 6.40567 12.6306 6.85978 13.3118C7.37067 14.2768 8.10861 15.0147 9.01684 15.5256C9.30067 15.6959 9.58449 15.8094 9.92508 15.923C10.2089 16.0365 10.3792 16.3203 10.2657 16.6609C10.2089 16.8312 9.92508 17.0015 9.69802 17.0015Z" fill="white"/>
<path d="M5.89517 17.0028C5.72488 17.0028 5.55458 16.9461 5.44105 16.8325C5.27076 16.6055 0.78635 11.4399 3.90841 7.69341C4.93017 6.44459 6.51958 5.82018 8.10899 5.99047C10.3228 6.38783 11.7987 8.034 12.196 10.4181C12.2528 10.7587 12.0258 11.0425 11.7419 11.0993C11.4581 11.1561 11.1175 10.929 11.0608 10.6452C10.7769 8.71518 9.58487 7.46635 7.88193 7.12577C6.68988 7.01224 5.49782 7.52312 4.70311 8.43135C2.20547 11.4399 6.17899 16.0378 6.23576 16.0946C6.46282 16.3216 6.40605 16.6622 6.17899 16.8893C6.17899 16.9461 6.06546 17.0028 5.89517 17.0028Z" fill="white"/>
<path d="M11.1739 15.2401C10.2656 15.2401 9.41415 14.9562 8.67621 14.4453C7.03003 13.083 6.9165 10.6421 6.9165 10.5286C6.9165 10.188 7.14356 9.96094 7.48415 9.96094C7.82474 9.96094 8.0518 10.188 8.0518 10.5286C8.0518 10.5286 8.10856 12.5721 9.41415 13.5939C10.2089 14.1615 11.1739 14.3318 12.1389 14.048C12.4794 13.9912 12.7633 14.2183 12.82 14.5021C12.8768 14.8427 12.6497 15.1265 12.3659 15.1833C11.9118 15.24 11.5144 15.2401 11.1739 15.2401Z" fill="white"/>
</svg>
