<svg width="20" height="20" viewBox="0 0 20 20" fill="none" xmlns="http://www.w3.org/2000/svg">
<path fill-rule="evenodd" clip-rule="evenodd" d="M13.0699 0H6.93013C1.32675 0 0 1.32675 0 6.93013V13.0699C0 18.6733 1.32675 20 6.93013 20H13.0699C18.6733 20 20 18.6733 20 13.0699V6.93013C20 1.32675 18.6733 0 13.0699 0ZM15.9351 6.35143C16.3726 6.35143 16.4714 6.57726 16.3726 6.88778C16.2184 7.59942 14.938 9.48715 14.5414 10.0718C14.466 10.1829 14.4226 10.247 14.4248 10.247C14.2696 10.501 14.2131 10.614 14.4248 10.8962C14.5014 11.0006 14.6637 11.1599 14.8491 11.3419C15.0399 11.5291 15.2552 11.7403 15.4269 11.9407C16.048 12.6464 16.5279 13.2392 16.6549 13.6485C16.7678 14.0579 16.5702 14.2696 16.1468 14.2696H14.693C14.3077 14.2696 14.1091 14.0483 13.6859 13.5768C13.5044 13.3746 13.2817 13.1264 12.9852 12.8299C12.1242 11.9972 11.7431 11.8842 11.5314 11.8842C11.235 11.8842 11.1503 11.9548 11.1503 12.3782V13.6909C11.1503 14.0437 11.0374 14.2555 10.1058 14.2555C8.56738 14.2555 6.85955 13.3239 5.65983 11.5878C3.8532 9.04727 3.3592 7.12772 3.3592 6.74663C3.3592 6.53492 3.42977 6.33732 3.8532 6.33732H5.32109C5.68806 6.33732 5.82921 6.49258 5.97035 6.90189C6.69018 8.9767 7.8899 10.7974 8.3839 10.7974C8.56739 10.7974 8.65207 10.7128 8.65207 10.247V8.10161C8.61722 7.49181 8.40495 7.22612 8.24753 7.0291C8.14991 6.90691 8.07338 6.81113 8.07338 6.67606C8.07338 6.50669 8.21453 6.33732 8.44036 6.33732H10.7269C11.0374 6.33732 11.1503 6.50669 11.1503 6.87366V9.7671C11.1503 10.0776 11.2773 10.1905 11.3761 10.1905C11.5596 10.1905 11.7149 10.0776 12.0536 9.73887C13.0981 8.56738 13.8461 6.76075 13.8461 6.76075C13.9449 6.54903 14.1143 6.35143 14.4813 6.35143H15.9351Z" fill="#C1C7CB"/>
</svg>
