<svg width="36" height="36" viewBox="0 0 36 36" fill="none" xmlns="http://www.w3.org/2000/svg">
<path fill-rule="evenodd" clip-rule="evenodd" d="M8 0C3.58172 0 0 3.58172 0 8V28C0 32.4183 3.58172 36 8 36H28C32.4183 36 36 32.4183 36 28V8C36 3.58172 32.4183 0 28 0H8ZM25.8935 23.5977C25.9645 23.2887 26 23.0384 26 22.8466C26 22.7472 25.9893 22.6726 25.968 22.6229C25.9254 22.495 25.6555 22.3068 25.1584 22.0582C25.0234 21.9801 24.8317 21.8736 24.5831 21.7386C24.3345 21.6037 24.109 21.4794 23.9066 21.3658C23.7042 21.2521 23.5142 21.142 23.3366 21.0355C23.3082 21.0142 23.2195 20.9521 23.0703 20.8491C22.9212 20.7461 22.7951 20.6697 22.6921 20.62C22.5891 20.5703 22.4879 20.5455 22.3885 20.5455C22.2464 20.5455 22.0689 20.6467 21.8558 20.8491C21.6428 21.0515 21.4474 21.2717 21.2699 21.5096C21.0923 21.7475 20.9041 21.9677 20.7053 22.1701C20.5064 22.3725 20.343 22.4737 20.2152 22.4737C20.1513 22.4737 20.0714 22.456 19.9755 22.4205C19.8796 22.3849 19.8068 22.3548 19.7571 22.3299C19.7074 22.305 19.6222 22.2553 19.5014 22.1808C19.3807 22.1062 19.3132 22.0653 19.299 22.0582C18.326 21.5185 17.4915 20.9006 16.7955 20.2045C16.0994 19.5085 15.4815 18.674 14.9418 17.701C14.9347 17.6868 14.8938 17.6193 14.8192 17.4986C14.7447 17.3778 14.695 17.2926 14.6701 17.2429C14.6452 17.1932 14.6151 17.1204 14.5795 17.0245C14.544 16.9286 14.5263 16.8487 14.5263 16.7848C14.5263 16.657 14.6275 16.4936 14.8299 16.2947C15.0323 16.0959 15.2525 15.9077 15.4904 15.7301C15.7283 15.5526 15.9485 15.3572 16.1509 15.1442C16.3533 14.9311 16.4545 14.7536 16.4545 14.6115C16.4545 14.5121 16.4297 14.4109 16.38 14.3079C16.3303 14.2049 16.2539 14.0788 16.1509 13.9297C16.0479 13.7805 15.9858 13.6918 15.9645 13.6634C15.858 13.4858 15.7479 13.2958 15.6342 13.0934C15.5206 12.891 15.3963 12.6655 15.2614 12.4169C15.1264 12.1683 15.0199 11.9766 14.9418 11.8416C14.6932 11.3445 14.505 11.0746 14.3771 11.032C14.3274 11.0107 14.2528 11 14.1534 11C13.9616 11 13.7113 11.0355 13.4023 11.1065C13.0934 11.1776 12.8501 11.2521 12.6726 11.3303C12.3175 11.4794 11.9411 11.9126 11.5433 12.63C11.1811 13.2976 11 13.9581 11 14.6115C11 14.8033 11.0124 14.9897 11.0373 15.1708C11.0621 15.3519 11.1065 15.5561 11.1705 15.7834C11.2344 16.0107 11.2859 16.1793 11.3249 16.2894C11.364 16.3995 11.4368 16.5966 11.5433 16.8807C11.6499 17.1648 11.7138 17.3388 11.7351 17.4027C11.9837 18.0987 12.2784 18.7202 12.6193 19.267C13.1804 20.1761 13.9457 21.1154 14.9151 22.0849C15.8846 23.0543 16.8239 23.8196 17.733 24.3807C18.2798 24.7216 18.9013 25.0163 19.5973 25.2649C19.6612 25.2862 19.8352 25.3501 20.1193 25.4567C20.4034 25.5632 20.6005 25.636 20.7106 25.6751C20.8207 25.7141 20.9893 25.7656 21.2166 25.8295C21.4439 25.8935 21.6481 25.9379 21.8292 25.9627C22.0103 25.9876 22.1967 26 22.3885 26C23.0419 26 23.7024 25.8189 24.37 25.4567C25.0874 25.0589 25.5206 24.6825 25.6697 24.3274C25.7479 24.1499 25.8224 23.9066 25.8935 23.5977Z" fill="white"/>
</svg>
