<svg width="27" height="23" viewBox="0 0 27 23" fill="none" xmlns="http://www.w3.org/2000/svg">
<path fill-rule="evenodd" clip-rule="evenodd" d="M7.34515 0.954102H25.5555C26.0344 0.954102 26.4222 1.34214 26.4222 1.81729V13.9077C26.4222 14.386 26.0344 14.7716 25.5555 14.7716H7.34515C6.86451 14.7716 6.47559 14.3853 6.47559 13.9077V1.81729C6.47535 1.34191 6.86451 0.954102 7.34515 0.954102ZM9.05756 2.25556H23.8406C24.2273 2.25669 24.5468 2.56916 24.5468 2.9554V12.7703C24.5468 13.157 24.2273 13.4726 23.8406 13.4726H9.05756C8.67043 13.4726 8.35457 13.1572 8.35457 12.7703V2.9554C8.35457 2.56916 8.67044 2.25669 9.05756 2.25669V2.25556V2.25556Z" fill="black"/>
<path fill-rule="evenodd" clip-rule="evenodd" d="M15.7182 5.27441C16.2061 5.27441 16.6948 5.27441 17.1809 5.27441C18.3355 6.78358 19.4863 8.29706 20.6392 9.80988C17.8459 10.6875 15.0539 10.6672 12.2617 9.80988C13.4128 8.29706 14.5654 6.78383 15.7182 5.27441Z" fill="black"/>
<path fill-rule="evenodd" clip-rule="evenodd" d="M8.21289 22.5464H24.69V18.2295H8.21289V22.5464ZM23.4836 20.3894C23.4836 19.9308 23.1149 19.5615 22.6538 19.5615C22.1952 19.5615 21.8229 19.9308 21.8229 20.3894C21.8229 20.8433 22.1952 21.2132 22.6538 21.2132C23.1149 21.2132 23.4836 20.8433 23.4836 20.3894ZM20.2829 20.3894C20.2829 19.9308 19.9117 19.5615 19.4513 19.5615C18.9956 19.5615 18.624 19.9308 18.624 20.3894C18.624 20.8433 18.9958 21.2132 19.4513 21.2132C19.9117 21.2132 20.2829 20.8433 20.2829 20.3894Z" fill="black"/>
<path d="M16.8565 14.7724C16.8565 14.5465 16.6745 14.3633 16.45 14.3633C16.2255 14.3633 16.0435 14.5465 16.0435 14.7724V18.2272C16.0435 18.4532 16.2255 18.6364 16.45 18.6364C16.6745 18.6364 16.8565 18.4532 16.8565 18.2272V14.7724Z" fill="black"/>
<path d="M0.813025 4.41011C0.813025 4.18416 0.631015 4.00098 0.406512 4.00098C0.18201 4.00098 0 4.18416 0 4.41011V22.5452C0 22.7711 0.18201 22.9543 0.406512 22.9543H3.87539C4.09989 22.9543 4.2819 22.7711 4.2819 22.5452V20.3645H8.21293C8.43743 20.3645 8.61944 20.1813 8.61944 19.9554C8.61944 19.7294 8.43743 19.5462 8.21293 19.5462H3.87539C3.65089 19.5462 3.46888 19.7294 3.46888 19.9554V22.1361H0.813025V4.41011Z" fill="black"/>
</svg>
