<svg width="16" height="22" viewBox="0 0 16 22" fill="none" xmlns="http://www.w3.org/2000/svg">
<path d="M9.675 6.73408L13.025 3.21409C13.0902 3.1464 13.1405 3.06677 13.173 2.97996C13.2056 2.89314 13.2196 2.80092 13.2143 2.70877C13.2084 2.6165 13.1832 2.52632 13.1402 2.44363C13.0973 2.36094 13.0374 2.28744 12.9643 2.22752L10.4643 0.165027C10.3901 0.103935 10.3036 0.0581384 10.2103 0.0304674C10.117 0.00279636 10.0187 -0.00616135 9.92168 0.0041477C9.82461 0.0144568 9.73077 0.0438136 9.64596 0.0904043C9.56115 0.136995 9.48716 0.19983 9.42857 0.275027L8.50714 1.45753L6.88571 0.158152C6.74855 0.0491162 6.57406 -0.00673389 6.39637 0.00153116C6.21868 0.00979622 6.0506 0.0815815 5.925 0.20284L3.78214 2.26534C3.65616 2.38622 3.58158 2.54801 3.57299 2.71903C3.5644 2.89005 3.62243 3.05801 3.73571 3.19002L6.59286 6.46939C3.39643 7.78939 0 13.5094 0 17.1875C0 21.6562 6.01429 22 7.85714 22C9.7 22 15.7143 21.6562 15.7143 17.1875C15.7143 13.7156 12.6893 8.42877 9.675 6.73408ZM6.46071 1.61909L7.63571 2.56096L7.27857 3.02502C7.16491 3.17089 7.1161 3.35425 7.14289 3.53475C7.16968 3.71525 7.26988 3.87812 7.42143 3.98752C7.57298 4.09692 7.76348 4.1439 7.95102 4.11811C8.13855 4.09233 8.30777 3.99589 8.42143 3.85002L10.1071 1.68784L11.4679 2.80846L8.225 6.21502L5.26429 2.77752L6.46071 1.61909ZM7.85714 20.625C6.35 20.625 1.42857 20.3775 1.42857 17.1875C1.42857 13.2206 5.58571 7.56252 7.85714 7.56252C10.1286 7.56252 14.2857 13.2206 14.2857 17.1875C14.2857 20.3775 9.36429 20.625 7.85714 20.625ZM6.07143 13.0625C6.07143 13.2448 6.14668 13.4197 6.28064 13.5486C6.41459 13.6776 6.59627 13.75 6.78571 13.75H8.92857C9.49689 13.75 10.0419 13.9673 10.4438 14.3541C10.8457 14.7409 11.0714 15.2655 11.0714 15.8125C11.0714 16.3595 10.8457 16.8841 10.4438 17.2709C10.0419 17.6577 9.49689 17.875 8.92857 17.875H8.57143V18.5625C8.57143 18.7448 8.49617 18.9197 8.36222 19.0486C8.22827 19.1776 8.04658 19.25 7.85714 19.25C7.6677 19.25 7.48602 19.1776 7.35207 19.0486C7.21811 18.9197 7.14286 18.7448 7.14286 18.5625V17.875H6.07143C5.88199 17.875 5.70031 17.8026 5.56635 17.6736C5.4324 17.5447 5.35714 17.3698 5.35714 17.1875C5.35714 17.0052 5.4324 16.8303 5.56635 16.7014C5.70031 16.5724 5.88199 16.5 6.07143 16.5H8.92857C9.11801 16.5 9.29969 16.4276 9.43365 16.2986C9.5676 16.1697 9.64286 15.9948 9.64286 15.8125C9.64286 15.6302 9.5676 15.4553 9.43365 15.3264C9.29969 15.1974 9.11801 15.125 8.92857 15.125H6.78571C6.21739 15.125 5.67235 14.9077 5.27049 14.5209C4.86862 14.1341 4.64286 13.6095 4.64286 13.0625C4.64286 12.5155 4.86862 11.9909 5.27049 11.6041C5.67235 11.2173 6.21739 11 6.78571 11H7.14286V10.3125C7.14286 10.1302 7.21811 9.95531 7.35207 9.82638C7.48602 9.69745 7.6677 9.62502 7.85714 9.62502C8.04658 9.62502 8.22827 9.69745 8.36222 9.82638C8.49617 9.95531 8.57143 10.1302 8.57143 10.3125V11H9.64286C9.8323 11 10.014 11.0724 10.1479 11.2014C10.2819 11.3303 10.3571 11.5052 10.3571 11.6875C10.3571 11.8698 10.2819 12.0447 10.1479 12.1736C10.014 12.3026 9.8323 12.375 9.64286 12.375H6.78571C6.59627 12.375 6.41459 12.4474 6.28064 12.5764C6.14668 12.7053 6.07143 12.8802 6.07143 13.0625Z" fill="black"/>
</svg>
