<svg width="47" height="55" viewBox="0 0 47 55" fill="none" xmlns="http://www.w3.org/2000/svg">
<path fill-rule="evenodd" clip-rule="evenodd" d="M29.1905 13.9683L28.4921 19.9048L32.6825 21.4762C33.381 21.6508 33.9048 22.5238 33.7302 23.2222L32.6825 31.9524C32.5079 34.0476 29.1905 33.6984 29.5397 31.6032L30.4127 24.0952L24.4762 22.5238L22.2063 29.1587L19.2381 37.1905C18.5397 39.2857 15.3968 38.0635 16.0952 36.1429L19.0635 28.2857L20.8095 19.7302L22.0317 11.1746L18.7143 12.9206L16.2698 15.8889L18.8889 17.2857C19.4127 17.4603 19.5873 18.1587 19.2381 18.6825L16.4444 23.746C16.2698 24.2698 15.5714 24.4444 15.0476 24.0952L7.53968 19.9048C7.01587 19.7302 6.84127 19.0317 7.19048 18.6825L9.98413 13.4444C10.1587 13.0952 10.8571 12.9206 11.2063 13.0952L13.4762 14.3175L16.2698 10.6508C16.4444 10.3016 16.7936 10.127 16.9683 10.127L23.0794 6.98413C23.254 6.98413 23.254 6.98413 23.254 6.98413C24.8254 6.11111 28.3175 6.63492 29.5397 9.07937L31.9841 12.2222L36.1746 10.3016C38.0952 9.42857 39.4921 12.3968 37.5714 13.2698L32.1587 15.7143C31.4603 16.2381 30.5873 16.0635 30.0635 15.3651L29.1905 13.9683ZM9.63492 44.5238H0.380951V55H9.63492V44.5238ZM34.6032 34.5714C31.4603 34.5714 28.3175 34.5714 25.1746 34.5714C25.1746 41.381 25.1746 48.1905 25.1746 55C28.3175 55 31.4603 55 34.6032 55C34.6032 48.1905 34.6032 41.381 34.6032 34.5714ZM22.0317 39.4603C19.0635 39.4603 15.9206 39.4603 12.7778 39.4603C12.7778 44.6984 12.7778 49.9365 12.7778 55C15.9206 55 19.0635 55 22.0317 55C22.0317 49.9365 22.0317 44.6984 22.0317 39.4603ZM47 29.5079H37.5714V55H47V29.5079ZM27.0952 0C25.3492 0 23.9524 1.39683 23.9524 3.14286C23.9524 4.88889 25.3492 6.28571 27.0952 6.28571C28.8413 6.28571 30.2381 4.88889 30.2381 3.14286C30.2381 1.39683 28.8413 0 27.0952 0Z" fill="#14C1DE"/>
</svg>
