<svg width="18" height="22" viewBox="0 0 18 22" fill="none" xmlns="http://www.w3.org/2000/svg">
<path d="M16.6 0H0.6C0.268629 1.44847e-08 0 0.268629 0 0.6V21.4C5.00356e-08 21.7314 0.26863 22 0.6 22H16.6C16.9314 22 17.2 21.7314 17.2 21.4V0.6C17.2 0.268629 16.9314 0 16.6 0ZM16 20.8H1.2V1.2H16V20.8ZM3.2 3.8C3.2 3.46863 3.46863 3.2 3.8 3.2H13.4C13.7314 3.2 14 3.46863 14 3.8C14 4.13137 13.7314 4.4 13.4 4.4H3.8C3.46863 4.4 3.2 4.13137 3.2 3.8ZM3.2 10.2C3.2 9.86863 3.46863 9.6 3.8 9.6H13.4C13.7314 9.6 14 9.86863 14 10.2C14 10.5314 13.7314 10.8 13.4 10.8H3.8C3.46863 10.8 3.2 10.5314 3.2 10.2ZM3.2 7C3.2 6.66863 3.46863 6.4 3.8 6.4H7C7.33137 6.4 7.6 6.66863 7.6 7C7.6 7.33137 7.33137 7.6 7 7.6H3.8C3.46863 7.6 3.2 7.33137 3.2 7ZM14 7C14 7.33137 13.7314 7.6 13.4 7.6H10.2C9.86863 7.6 9.6 7.33137 9.6 7C9.6 6.66863 9.86863 6.4 10.2 6.4H13.4C13.7314 6.4 14 6.66863 14 7ZM3.376 17.776L4.2728 16.8792C3.22938 16.2567 2.88818 14.9061 3.51071 13.8627C4.13324 12.8193 5.48377 12.4781 6.5272 13.1006C7.57062 13.7232 7.91182 15.0737 7.28929 16.1171C7.10237 16.4304 6.84048 16.6923 6.5272 16.8792L7.424 17.776C7.66643 18.0019 7.67983 18.3816 7.45393 18.624C7.22803 18.8664 6.84836 18.8798 6.60593 18.6539C6.5956 18.6443 6.58562 18.6343 6.576 18.624L5.4 17.4488L4.224 18.624C3.98156 18.8499 3.6019 18.8365 3.376 18.5941C3.16128 18.3636 3.16129 18.0064 3.376 17.776Z" fill="black"/>
</svg>
