<svg width="36" height="36" viewBox="0 0 36 36" fill="none" xmlns="http://www.w3.org/2000/svg">
<path fill-rule="evenodd" clip-rule="evenodd" d="M8 0C3.58154 0 0 3.58203 0 8V28C0 32.418 3.58154 36 8 36H28C32.4185 36 36 32.418 36 28V8C36 3.58203 32.4185 0 28 0H8ZM25.8936 23.5977C25.9644 23.2891 26 23.0381 26 22.8467C26 22.7471 25.9893 22.6729 25.9683 22.623C25.9253 22.4951 25.6558 22.3066 25.1582 22.0586C25.0234 21.9805 24.8315 21.874 24.583 21.7383C24.3345 21.6035 24.1089 21.4795 23.9067 21.3662C23.7041 21.252 23.5142 21.1416 23.3364 21.0352L23.0703 20.8486C22.9214 20.7461 22.7949 20.6699 22.6919 20.6201C22.6172 20.584 22.543 20.5615 22.4697 20.5518C22.4424 20.5479 22.4155 20.5459 22.3887 20.5459C22.2466 20.5459 22.0688 20.6465 21.856 20.8486C21.6426 21.0518 21.4473 21.2715 21.27 21.5098C21.1924 21.6133 21.1128 21.7139 21.0312 21.8115C20.9258 21.9365 20.8174 22.0557 20.7051 22.1699C20.5063 22.3721 20.3433 22.4736 20.2153 22.4736C20.1514 22.4736 20.0713 22.4561 19.9756 22.4209C19.8794 22.3848 19.8066 22.3545 19.7573 22.3301C19.7075 22.3047 19.6221 22.2549 19.5015 22.1807L19.2988 22.0586C18.3262 21.5186 17.4917 20.9004 16.7954 20.2041C16.0996 19.5088 15.4814 18.6738 14.9419 17.7012C14.9346 17.6865 14.894 17.6191 14.8193 17.499C14.7446 17.3779 14.6948 17.293 14.6699 17.2432C14.645 17.1934 14.6152 17.1201 14.5796 17.0244C14.5439 16.9287 14.5264 16.8486 14.5264 16.7852C14.5264 16.6572 14.6274 16.4932 14.8301 16.2949C15.0322 16.0957 15.2524 15.9072 15.4902 15.7305C15.7285 15.5527 15.9487 15.3574 16.1509 15.1445C16.3535 14.9307 16.4546 14.7539 16.4546 14.6113C16.4546 14.5117 16.4297 14.4111 16.3799 14.3076C16.3584 14.2637 16.3315 14.2148 16.2998 14.1611C16.2588 14.0918 16.2095 14.0146 16.1509 13.9297L15.9644 13.6631C15.8579 13.4854 15.748 13.2959 15.6343 13.0938C15.5205 12.8906 15.3965 12.665 15.2612 12.417C15.1265 12.168 15.02 11.9766 14.9419 11.8418C14.6934 11.3447 14.5049 11.0742 14.377 11.0322C14.3584 11.0244 14.3364 11.0176 14.311 11.0127C14.2686 11.0039 14.2158 11 14.1533 11C13.9614 11 13.7114 11.0352 13.4023 11.1064C13.0933 11.1777 12.8501 11.252 12.6724 11.3301C12.3174 11.4795 11.9409 11.9131 11.5435 12.6299C11.3691 12.9512 11.2368 13.2705 11.1465 13.5879C11.0488 13.9307 11 14.2715 11 14.6113C11 14.7236 11.0044 14.834 11.0127 14.9424C11.0186 15.0195 11.0269 15.0957 11.0371 15.1709C11.062 15.3516 11.1064 15.5557 11.1704 15.7832C11.2344 16.0107 11.2856 16.1797 11.3247 16.2891C11.3638 16.3994 11.437 16.5967 11.5435 16.8809C11.6499 17.165 11.7139 17.3389 11.7349 17.4023C11.8594 17.751 11.9956 18.0801 12.1431 18.3906C12.29 18.7012 12.4487 18.9932 12.6191 19.2666C13.1802 20.1758 13.9458 21.1152 14.915 22.085C15.8848 23.0547 16.8237 23.8193 17.7329 24.3809C18.2798 24.7217 18.9014 25.0166 19.5972 25.2646C19.6611 25.2861 19.8354 25.3506 20.1191 25.457C20.4033 25.5635 20.6006 25.6357 20.7104 25.6748C20.8208 25.7139 20.9893 25.7656 21.2168 25.8291C21.4438 25.8936 21.6479 25.9375 21.8291 25.9629C22.0103 25.9873 22.1968 26 22.3887 26C23.042 26 23.7026 25.8193 24.3701 25.457C25.0874 25.0586 25.5205 24.6826 25.6699 24.3271C25.748 24.1494 25.8223 23.9062 25.8936 23.5977Z" fill="white"/>
</svg>
