<svg width="55" height="55" viewBox="0 0 55 55" fill="none" xmlns="http://www.w3.org/2000/svg">
<path d="M34.9266 22.7592C34.9266 21.5755 34.5542 20.6167 33.8094 19.8828C33.0646 19.1489 32.0849 18.782 30.8703 18.782H25.3703V26.7365H30.8703C32.0849 26.7365 33.0646 26.3696 33.8094 25.6357C34.5542 24.9018 34.9266 23.9429 34.9266 22.7592ZM39 22.7592C39 25.0438 38.2753 26.9081 36.8258 28.3523C35.3763 29.7964 33.5057 30.5185 31.2141 30.5185H25.3703V32.6136H34.05C34.2104 32.6136 34.3422 32.6669 34.4453 32.7734C34.5484 32.88 34.6 33.0161 34.6 33.1818V35.4545C34.6 35.6203 34.5484 35.7564 34.4453 35.8629C34.3422 35.9695 34.2104 36.0227 34.05 36.0227H25.3703V39.4318C25.3703 39.5975 25.3159 39.7337 25.207 39.8402C25.0982 39.9467 24.9693 40 24.8203 40H21.95C21.7896 40 21.6578 39.9467 21.5547 39.8402C21.4516 39.7337 21.4 39.5975 21.4 39.4318V36.0227H17.55C17.3896 36.0227 17.2578 35.9695 17.1547 35.8629C17.0516 35.7564 17 35.6203 17 35.4545V33.1818C17 33.0161 17.0516 32.88 17.1547 32.7734C17.2578 32.6669 17.3896 32.6136 17.55 32.6136H21.4V30.5185H17.55C17.3896 30.5185 17.2578 30.4652 17.1547 30.3587C17.0516 30.2521 17 30.116 17 29.9503V27.3047C17 27.1508 17.0516 27.0176 17.1547 26.9052C17.2578 26.7927 17.3896 26.7365 17.55 26.7365H21.4V15.5682C21.4 15.4025 21.4516 15.2663 21.5547 15.1598C21.6578 15.0533 21.7896 15 21.95 15H31.2141C33.5057 15 35.3763 15.7221 36.8258 17.1662C38.2753 18.6103 39 20.4747 39 22.7592Z" fill="#14C1DE"/>
<path d="M27.4999 53.5C13.1409 53.5 1.5 41.8591 1.5 27.5001C1.5 13.1404 13.1408 1.5 27.4999 1.5C41.8596 1.5 53.5 13.1404 53.5 27.5001C53.5 41.8592 41.8596 53.5 27.4999 53.5Z" stroke="#14C1DE" stroke-width="3"/>
</svg>
