<svg width="55" height="53" viewBox="0 0 55 53" fill="none" xmlns="http://www.w3.org/2000/svg">
<path d="M11.8402 10.6382V0.722656L0.723633 11.8401H10.6384C10.957 11.8397 11.2625 11.713 11.4878 11.4876C11.7131 11.2623 11.8399 10.9568 11.8402 10.6382Z" fill="#14C1DE"/>
<path d="M35.8666 38.538L33.4025 31.3663C33.2022 30.7836 33.2267 30.147 33.4714 29.5814L38.0965 18.8874V3.69687C38.0955 2.71667 37.7057 1.77689 37.0126 1.0838C36.3195 0.390705 35.3797 0.000921283 34.3995 0H14.3118V10.6381C14.3106 11.6121 13.9232 12.5458 13.2345 13.2345C12.5458 13.9232 11.6121 14.3106 10.6381 14.3118H0V48.604C0.000945485 49.5842 0.390737 50.5239 1.08383 51.217C1.77692 51.9101 2.71668 52.3 3.69687 52.3009H34.3995C35.3797 52.3 36.3195 51.9102 37.0126 51.2171C37.7057 50.524 38.0955 49.5842 38.0965 48.604V40.196C37.6001 40.1801 37.1204 40.0127 36.7218 39.7164C36.3232 39.42 36.0248 39.0088 35.8667 38.538H35.8666ZM22.4818 43.7928H18.8778C17.9022 43.7916 16.9615 43.4298 16.2365 42.7769C15.5115 42.124 15.0534 41.2262 14.9503 40.256L10.0059 43.5827C9.73392 43.7658 9.40032 43.8333 9.0785 43.7705C8.75668 43.7076 8.47302 43.5195 8.28991 43.2475C8.1068 42.9755 8.03925 42.6419 8.10211 42.3201C8.16497 41.9982 8.3531 41.7146 8.62511 41.5315L14.0999 37.8489C14.4187 37.6344 14.7899 37.5107 15.1736 37.4909C15.5574 37.4712 15.9393 37.5562 16.2785 37.7368C16.6177 37.9174 16.9013 38.1869 17.0991 38.5163C17.2969 38.8458 17.4014 39.2228 17.4014 39.6071V39.8452C17.402 40.2366 17.5577 40.6118 17.8345 40.8885C18.1112 41.1653 18.4864 41.321 18.8778 41.3216H22.4818C22.6466 41.3176 22.8105 41.3466 22.964 41.4069C23.1175 41.4672 23.2573 41.5576 23.3753 41.6727C23.4933 41.7879 23.587 41.9255 23.6511 42.0774C23.7151 42.2294 23.7481 42.3926 23.7481 42.5574C23.7481 42.7223 23.7151 42.8855 23.6511 43.0375C23.587 43.1894 23.4933 43.327 23.3753 43.4422C23.2573 43.5573 23.1175 43.6477 22.964 43.708C22.8105 43.7683 22.6466 43.7973 22.4818 43.7933V43.7928ZM22.4818 33.0573H8.37741C8.21258 33.0613 8.04862 33.0323 7.89516 32.972C7.74171 32.9117 7.60187 32.8213 7.48388 32.7061C7.36588 32.591 7.27211 32.4534 7.20809 32.3014C7.14407 32.1495 7.11109 31.9863 7.11109 31.8214C7.11109 31.6565 7.14407 31.4933 7.20809 31.3414C7.27211 31.1894 7.36588 31.0518 7.48388 30.9367C7.60187 30.8215 7.74171 30.7311 7.89516 30.6708C8.04862 30.6105 8.21258 30.5815 8.37741 30.5855H22.4818C22.8043 30.5934 23.111 30.7271 23.3364 30.958C23.5617 31.1889 23.6879 31.4987 23.6879 31.8214C23.6879 32.1441 23.5617 32.4539 23.3364 32.6848C23.111 32.9158 22.8043 33.0494 22.4818 33.0573ZM29.719 43.7928H27.4323C27.1098 43.785 26.8031 43.6513 26.5777 43.4204C26.3524 43.1895 26.2262 42.8796 26.2262 42.557C26.2262 42.2343 26.3524 41.9245 26.5777 41.6935C26.8031 41.4626 27.1098 41.329 27.4323 41.3211H29.719C30.0416 41.329 30.3483 41.4626 30.5736 41.6935C30.799 41.9245 30.9251 42.2343 30.9251 42.557C30.9251 42.8796 30.799 43.1895 30.5736 43.4204C30.3483 43.6513 30.0416 43.785 29.719 43.7928ZM29.719 26.928H8.37741C8.21258 26.932 8.04862 26.903 7.89516 26.8427C7.74171 26.7824 7.60187 26.692 7.48388 26.5768C7.36588 26.4617 7.27211 26.3241 7.20809 26.1721C7.14407 26.0202 7.11109 25.857 7.11109 25.6921C7.11109 25.5272 7.14407 25.364 7.20809 25.2121C7.27211 25.0601 7.36588 24.9225 7.48388 24.8074C7.60187 24.6922 7.74171 24.6018 7.89516 24.5415C8.04862 24.4812 8.21258 24.4522 8.37741 24.4562H29.719C29.8838 24.4522 30.0478 24.4812 30.2012 24.5415C30.3547 24.6018 30.4945 24.6922 30.6125 24.8074C30.7305 24.9225 30.8243 25.0601 30.8883 25.2121C30.9523 25.364 30.9853 25.5272 30.9853 25.6921C30.9853 25.857 30.9523 26.0202 30.8883 26.1721C30.8243 26.3241 30.7305 26.4617 30.6125 26.5768C30.4945 26.692 30.3547 26.7824 30.2012 26.8427C30.0478 26.903 29.8838 26.932 29.719 26.928ZM29.719 20.7987H8.37741C8.21258 20.8028 8.04862 20.7738 7.89516 20.7135C7.74171 20.6532 7.60187 20.5628 7.48388 20.4476C7.36588 20.3324 7.27211 20.1948 7.20809 20.0429C7.14407 19.891 7.11109 19.7278 7.11109 19.5629C7.11109 19.398 7.14407 19.2348 7.20809 19.0829C7.27211 18.9309 7.36588 18.7933 7.48388 18.6782C7.60187 18.563 7.74171 18.4726 7.89516 18.4123C8.04862 18.352 8.21258 18.323 8.37741 18.327H29.719C29.8838 18.323 30.0478 18.352 30.2012 18.4123C30.3547 18.4726 30.4945 18.563 30.6125 18.6782C30.7305 18.7933 30.8243 18.9309 30.8883 19.0829C30.9523 19.2348 30.9853 19.398 30.9853 19.5629C30.9853 19.7278 30.9523 19.891 30.8883 20.0429C30.8243 20.1948 30.7305 20.3324 30.6125 20.4476C30.4945 20.5628 30.3547 20.6532 30.2012 20.7135C30.0478 20.7738 29.8838 20.8028 29.719 20.7987Z" fill="#14C1DE"/>
<path d="M51.9199 6.02329C50.6763 5.48544 49.27 5.46361 48.0104 5.96261C46.7507 6.46161 45.7409 7.44056 45.203 8.68411L44.9502 9.26917L54.3272 13.3258L54.5805 12.7402C55.1184 11.4967 55.1403 10.0904 54.6413 8.83072C54.1423 7.57105 53.1634 6.56119 51.9199 6.02329Z" fill="#14C1DE"/>
<path d="M36.957 27.7511L46.334 31.8059L53.3448 15.5958L43.9678 11.54L36.957 27.7511Z" fill="#14C1DE"/>
<path d="M35.9761 30.0205L35.7407 30.5635L38.2049 37.7346L45.1187 34.6193L45.3531 34.0762L35.9761 30.0205Z" fill="#14C1DE"/>
</svg>
