<svg width="22" height="23" viewBox="0 0 22 23" fill="none" xmlns="http://www.w3.org/2000/svg">
<path d="M6.39149 12.1397C5.58415 11.3324 6.72788 10.1214 7.53522 10.8614L9.82268 13.0143L14.3976 8.1703C15.2049 7.36296 16.416 8.50669 15.6759 9.31403L10.4282 14.8308C10.0918 15.1672 9.62085 15.2345 9.21718 14.8981L6.39149 12.1397Z" fill="black"/>
<path d="M10.9664 0.5C17.0887 0.5 22 5.41131 22 11.4664C22 17.5887 17.0887 22.5 10.9664 22.5C4.91131 22.5 0 17.5887 0 11.4664C0 5.41131 4.91131 0.5 10.9664 0.5ZM10.9664 2.18196C5.85321 2.18196 1.68196 6.35321 1.68196 11.4664C1.68196 16.6468 5.85321 20.818 10.9664 20.818C16.1468 20.818 20.318 16.6468 20.318 11.4664C20.318 6.35321 16.1468 2.18196 10.9664 2.18196Z" fill="black"/>
</svg>
