<svg width="55" height="55" viewBox="0 0 55 55" fill="none" xmlns="http://www.w3.org/2000/svg">
<path d="M9.56055 37.1148V37.3293C9.56055 38.2192 10.282 38.9406 11.1719 38.9406H27.0703C27.9602 38.9406 28.6816 38.2192 28.6816 37.3293V37.1148C28.6816 36.2699 28.5456 35.4565 28.2973 34.6934H9.9449C9.69654 35.4564 9.56055 36.2698 9.56055 37.1148Z" fill="#14C1DE"/>
<path d="M24.4182 11.0398C23.2139 11.881 21.7295 12.3757 20.0616 12.4721C17.87 12.5986 15.6445 11.9943 13.8983 10.8652C12.6825 13.7027 11.466 16.5401 10.249 19.377C16.2062 22.4033 22.0359 22.4032 27.9931 19.377C27.5119 18.2552 27.0309 17.1331 26.55 16.0112C25.8396 14.3541 25.1291 12.6968 24.4182 11.0398Z" fill="#14C1DE"/>
<path d="M38.2422 29.8591V1.61133C38.2422 0.721445 37.5207 0 36.6309 0H1.61133C0.721445 0 0 0.721445 0 1.61133V29.8591C0 30.749 0.721445 31.4704 1.61133 31.4704H36.6309C37.5207 31.4704 38.2422 30.7491 38.2422 29.8591ZM30.8588 21.4874C26.9645 23.7357 23.0429 24.8599 19.1212 24.8599C15.1996 24.8599 11.2778 23.7357 7.38354 21.4874C6.67659 21.0792 6.38655 20.2069 6.70839 19.4567C8.40673 15.4981 10.104 11.5392 11.8001 7.57969C12.0205 7.06503 12.4923 6.70173 13.0462 6.62009C13.6003 6.53834 14.1567 6.75007 14.5162 7.17922C15.6566 8.54004 17.8103 9.37503 19.8759 9.25493C20.8343 9.19961 22.5943 8.87573 23.6128 7.32811C23.9387 6.833 24.5096 6.55606 25.1008 6.60902C25.6913 6.66123 26.2055 7.03355 26.4393 7.57818C27.4646 9.96553 28.4883 12.3536 29.512 14.7416C30.1858 16.3134 30.8596 17.8851 31.5338 19.4567C31.8557 20.2068 31.5657 21.0792 30.8588 21.4874Z" fill="#14C1DE"/>
<path d="M33.623 42.1096C32.7332 42.1096 32.0117 42.831 32.0117 43.7209V50.1662C32.0117 51.0561 32.7332 51.7776 33.623 51.7776H43.8278C43.8847 51.7776 43.9408 51.7814 43.9961 51.7877V42.0996C43.9408 42.1058 43.8847 42.1097 43.8278 42.1097H33.623V42.1096Z" fill="#14C1DE"/>
<path d="M50.3805 38.8867H47.2188V55H50.3805C52.9276 55 54.9999 52.9277 54.9999 50.3806V43.5062C54.9999 40.959 52.9276 38.8867 50.3805 38.8867Z" fill="#14C1DE"/>
<path d="M6.01562 43.721V34.6934H2.79297V43.721C2.79297 46.3864 4.96149 48.555 7.62695 48.555H28.7891V45.3323H7.62695C6.73847 45.3323 6.01562 44.6095 6.01562 43.721Z" fill="#14C1DE"/>
</svg>
