<svg width="52" height="55" viewBox="0 0 52 55" fill="none" xmlns="http://www.w3.org/2000/svg">
<path d="M39.9916 29.5871L24.2773 45.3013C24.0727 45.4855 23.8374 45.5776 23.5714 45.5776C23.3054 45.5776 23.0701 45.4855 22.8655 45.3013L14.0262 36.4621C13.8421 36.2574 13.75 36.0221 13.75 35.7561C13.75 35.4901 13.8421 35.2651 14.0262 35.0809L15.4381 33.6691C15.6222 33.4849 15.8473 33.3929 16.1133 33.3929C16.3793 33.3929 16.6146 33.4849 16.8192 33.6691L23.5714 40.4213L37.1987 26.7941C37.4033 26.6099 37.6386 26.5179 37.9046 26.5179C38.1706 26.5179 38.3956 26.6099 38.5798 26.7941L39.9916 28.2059C40.1758 28.3901 40.2679 28.6151 40.2679 28.8811C40.2679 29.1471 40.1758 29.3824 39.9916 29.5871ZM3.92857 51.0714H47.1429V19.6429H3.92857V51.0714ZM15.7143 13.75V4.91071C15.7143 4.62426 15.6222 4.38895 15.4381 4.2048C15.2539 4.02065 15.0186 3.92857 14.7321 3.92857H12.7679C12.4814 3.92857 12.2461 4.02065 12.0619 4.2048C11.8778 4.38895 11.7857 4.62426 11.7857 4.91071V13.75C11.7857 14.0365 11.8778 14.2718 12.0619 14.4559C12.2461 14.6401 12.4814 14.7321 12.7679 14.7321H14.7321C15.0186 14.7321 15.2539 14.6401 15.4381 14.4559C15.6222 14.2718 15.7143 14.0365 15.7143 13.75ZM39.2857 13.75V4.91071C39.2857 4.62426 39.1936 4.38895 39.0095 4.2048C38.8253 4.02065 38.59 3.92857 38.3036 3.92857H36.3393C36.0528 3.92857 35.8175 4.02065 35.6334 4.2048C35.4492 4.38895 35.3571 4.62426 35.3571 4.91071V13.75C35.3571 14.0365 35.4492 14.2718 35.6334 14.4559C35.8175 14.6401 36.0528 14.7321 36.3393 14.7321H38.3036C38.59 14.7321 38.8253 14.6401 39.0095 14.4559C39.1936 14.2718 39.2857 14.0365 39.2857 13.75ZM51.0714 11.7857V51.0714C51.0714 52.1354 50.6827 53.0562 49.9051 53.8337C49.1276 54.6112 48.2068 55 47.1429 55H3.92857C2.86458 55 1.94382 54.6112 1.16629 53.8337C0.388765 53.0562 0 52.1354 0 51.0714V11.7857C0 10.7217 0.388765 9.80097 1.16629 9.02344C1.94382 8.24591 2.86458 7.85714 3.92857 7.85714H7.85714V4.91071C7.85714 3.56027 8.33798 2.4042 9.29966 1.44252C10.2613 0.480841 11.4174 0 12.7679 0H14.7321C16.0826 0 17.2387 0.480841 18.2003 1.44252C19.162 2.4042 19.6429 3.56027 19.6429 4.91071V7.85714H31.4286V4.91071C31.4286 3.56027 31.9094 2.4042 32.8711 1.44252C33.8328 0.480841 34.9888 0 36.3393 0H38.3036C39.654 0 40.8101 0.480841 41.7718 1.44252C42.7334 2.4042 43.2143 3.56027 43.2143 4.91071V7.85714H47.1429C48.2068 7.85714 49.1276 8.24591 49.9051 9.02344C50.6827 9.80097 51.0714 10.7217 51.0714 11.7857Z" fill="#14C1DE"/>
</svg>
