<svg width="55" height="47" viewBox="0 0 55 47" fill="none" xmlns="http://www.w3.org/2000/svg">
<path d="M54.9968 7.27647C54.8542 10.318 54.7047 13.3595 54.5705 16.4004C54.5455 16.9629 54.4228 17.4511 53.8598 17.7586C53.6847 17.8538 53.5319 17.8941 53.3945 17.8941C53.0283 17.8941 52.7726 17.6116 52.5087 17.3476C51.7744 16.6126 51.0426 15.8757 50.305 15.1446C50.2085 15.0487 50.1069 14.9567 50.0015 14.8627L49.6915 14.5528L48.6453 15.599L40.0172 24.227L39.2516 24.9927L37.3617 26.8819L28.4781 35.7656L27.9674 36.2762C27.5654 36.6782 27.0388 36.8789 26.5121 36.8789C25.9855 36.8789 25.4589 36.6782 25.0569 36.2762L24.5462 35.7656L22.657 33.8763L13.7734 24.9927L13.3394 24.5587L4.02369 33.8763C3.62169 34.2783 3.09506 34.479 2.56843 34.479C2.04181 34.479 1.51518 34.2783 1.11317 33.8763L0.602523 33.3657C-0.200841 32.5623 -0.200841 31.2592 0.602523 30.4558L11.3754 19.6829L11.8861 19.1723C12.2881 18.7703 12.8147 18.5696 13.3413 18.5696C13.8679 18.5696 14.3946 18.7703 14.7966 19.1723L15.3072 19.6829L17.1964 21.5721L26.0801 30.4558L26.5141 30.8898L33.9425 23.4614L35.8317 21.5721L36.5974 20.8065L45.2254 12.1785L46.2882 11.1156C45.3123 10.1761 44.3664 9.20596 43.4096 8.24665C43.0786 7.91495 42.7737 7.58644 43.0415 7.00741C43.3087 6.42965 43.7835 6.40217 44.2705 6.37916C47.3881 6.23025 50.5057 6.08325 53.6227 5.93945C53.6719 5.93689 53.7198 5.93625 53.7665 5.93625C54.6587 5.93625 55.0396 6.35743 54.9968 7.27647ZM5.86178 35.7138C5.43997 36.1356 4.95041 36.466 4.41867 36.6961V39.5728V44.338C4.41867 45.4743 5.34026 46.3959 6.47661 46.3959H11.0974C12.2337 46.3959 13.1553 45.4743 13.1553 44.338V39.5728V33.5076V28.7423C13.1553 28.6407 13.1457 28.5423 13.1317 28.4445L5.86178 35.7138ZM23.2201 38.1137L22.7094 37.603L20.8202 35.7138L16.7606 31.6542C16.581 31.9596 16.4755 32.3144 16.4755 32.6946V33.5069V43.525V44.3373C16.4755 45.4737 17.3971 46.3953 18.5335 46.3953H23.1543C24.2906 46.3953 25.2122 45.4737 25.2122 44.3373V43.525V39.2935C24.467 39.0781 23.7838 38.6774 23.2201 38.1137ZM30.3161 37.603L29.8055 38.1137C29.4291 38.4901 28.9989 38.7937 28.5337 39.018V43.5257V44.338C28.5337 45.4743 29.4553 46.3959 30.5916 46.3959H35.2124C36.3487 46.3959 37.2703 45.4743 37.2703 44.338V43.5257V33.5076V32.6953C37.2703 32.1303 37.0422 31.6184 36.6734 31.2464L30.3161 37.603ZM41.8547 26.0651L41.089 26.8308L40.5918 27.328V28.7423V29.717V33.5076V34.4822V39.5721V44.3373C40.5918 45.4737 41.5134 46.3953 42.6497 46.3953H47.2705C48.4069 46.3953 49.3285 45.4737 49.3285 44.3373V39.5721V34.4822V33.5076V29.717V28.7423V23.6525V18.8872C49.3285 18.7939 49.3202 18.7025 49.308 18.6124L41.8547 26.0651ZM26.0565 0.00273325C25.3931 0.0219066 25.2787 0.136308 25.2614 0.805459C25.2537 1.1052 25.2595 1.40559 25.2576 1.70597C25.2531 2.59306 25.2486 2.58091 24.3999 2.88961C22.3426 3.63801 21.0739 5.03702 20.9372 7.28159C20.8164 9.26667 21.8505 10.6069 23.4815 11.5835C24.4862 12.1855 25.5976 12.5434 26.6611 13.0106C27.0765 13.1934 27.4721 13.4049 27.8217 13.6919C28.8468 14.5355 28.6564 15.9441 27.4433 16.4739C26.7921 16.7583 26.1063 16.8293 25.4033 16.7417C24.3149 16.6056 23.2731 16.3199 22.2946 15.8099C21.7207 15.5108 21.5526 15.5894 21.3571 16.2125C21.189 16.7494 21.0394 17.292 20.8912 17.8346C20.6918 18.5638 20.7633 18.7377 21.4587 19.0751C22.3445 19.5046 23.2936 19.7251 24.2612 19.8785C25.0179 19.998 25.0428 20.0319 25.0505 20.8167C25.0543 21.1733 25.0563 21.5293 25.0607 21.886C25.0658 22.3352 25.2819 22.596 25.7427 22.6043C26.2674 22.6139 26.7927 22.6145 27.3174 22.6011C27.7463 22.5903 27.9681 22.3576 27.9687 21.9224C27.97 21.4347 27.9936 20.9465 27.9725 20.4594C27.9508 19.9635 28.1643 19.713 28.6417 19.582C29.7371 19.2816 30.6741 18.6929 31.395 17.8174C33.3896 15.3945 32.6259 11.8397 29.7953 10.272C28.9069 9.77988 27.9636 9.40855 27.0279 9.02061C26.4879 8.79692 25.967 8.53297 25.5119 8.16868C24.6127 7.4484 24.7834 6.28202 25.8411 5.81994C26.1376 5.6902 26.4508 5.64674 26.7723 5.62948C27.9962 5.56301 29.1581 5.78606 30.265 6.32228C30.8159 6.58879 30.9987 6.5057 31.1847 5.93178C31.3809 5.32526 31.5464 4.70916 31.7248 4.09689C31.8443 3.68594 31.6979 3.41304 31.3068 3.24112C30.5986 2.92923 29.8681 2.70298 29.1031 2.58347C28.1035 2.42689 28.1042 2.42241 28.0997 1.41965C28.094 -0.000462157 28.094 -0.000461959 26.6751 0.00209449C26.4687 0.00209449 26.2623 -0.00301876 26.0565 0.00273325Z" fill="#14C1DE"/>
</svg>
