<svg width="55" height="63" viewBox="0 0 55 63" fill="none" xmlns="http://www.w3.org/2000/svg">
<path fill-rule="evenodd" clip-rule="evenodd" d="M12.2306 0H42.4499C50.2583 0 51.2951 0 52.1994 0.352902C53.0946 0.730618 53.8069 1.44288 54.1846 2.33798C54.5555 3.63406 54.6827 4.98771 54.5596 6.33018V14.6234H34.1341L27.3182 21.4388L20.5023 14.6234H0.0767721V6.33018C-0.0507147 4.99636 0.0689285 3.65046 0.429697 2.36003C0.810635 1.45943 1.53214 0.745897 2.43696 0.374959C3.34133 0 4.48834 0 12.2306 0ZM21.0315 38.977H33.5824V24.3316H43.2216V38.9991H54.5153C54.8395 43.3835 54.2383 47.7871 52.7506 51.9241C50.7973 56.1892 47.2614 59.5272 42.8908 61.2319C38.3248 62.9964 32.8324 63.0185 27.2959 62.9964L27.0921 62.9956C21.6242 62.9741 16.1892 62.9527 11.701 61.2099C7.33619 59.5043 3.80746 56.1657 1.86321 51.9021C0.380039 47.7713 -0.228388 43.3774 0.0765258 38.9991H11.3922V24.3316H21.0315V38.977Z" fill="white"/>
</svg>
