<svg width="70" height="70" viewBox="0 0 70 70" fill="none" xmlns="http://www.w3.org/2000/svg">
<path d="M0 32.9492H8.33984V37.0508H0V32.9492Z" fill="#14C1DE"/>
<path d="M61.6602 32.9492H70V37.0508H61.6602V32.9492Z" fill="#14C1DE"/>
<path d="M52.4014 14.6993L58.2012 8.89941L61.1012 11.7993L55.3013 17.5992L52.4014 14.6993Z" fill="#14C1DE"/>
<path d="M14.6983 17.5982L8.89844 11.7984L11.7984 8.89844L17.5982 14.6983L14.6983 17.5982Z" fill="#14C1DE"/>
<path d="M32.9492 0H37.0508V8.33984H32.9492V0Z" fill="#14C1DE"/>
<path d="M16.543 61.7969C14.2775 61.7969 12.4414 63.633 12.4414 65.8984V70H57.5586V65.8984C57.5586 63.633 55.7225 61.7969 53.457 61.7969H16.543Z" fill="#14C1DE"/>
<path d="M16.543 35V57.6953H53.457V35C53.457 24.8225 45.1775 16.543 35 16.543C24.8225 16.543 16.543 24.8225 16.543 35ZM32.9492 28.8477H37.0508V41.1523H32.9492V28.8477ZM32.9492 45.2539H37.0508V49.3555H32.9492V45.2539Z" fill="#14C1DE"/>
</svg>
